<?xml version="1.0" encoding="utf-8" standalone="no"?>
<!DOCTYPE svg PUBLIC "-//W3C//DTD SVG 1.1//EN"
  "http://www.w3.org/Graphics/SVG/1.1/DTD/svg11.dtd">
<!-- Created with matplotlib (https://matplotlib.org/) -->
<svg height="288pt" version="1.1" viewBox="0 0 432 288" width="432pt" xmlns="http://www.w3.org/2000/svg" xmlns:xlink="http://www.w3.org/1999/xlink">
 <metadata>
  <rdf:RDF xmlns:cc="http://creativecommons.org/ns#" xmlns:dc="http://purl.org/dc/elements/1.1/" xmlns:rdf="http://www.w3.org/1999/02/22-rdf-syntax-ns#">
   <cc:Work>
    <dc:type rdf:resource="http://purl.org/dc/dcmitype/StillImage"/>
    <dc:date>2021-04-27T19:48:43.909030</dc:date>
    <dc:format>image/svg+xml</dc:format>
    <dc:creator>
     <cc:Agent>
      <dc:title>Matplotlib v3.3.3, https://matplotlib.org/</dc:title>
     </cc:Agent>
    </dc:creator>
   </cc:Work>
  </rdf:RDF>
 </metadata>
 <defs>
  <style type="text/css">*{stroke-linecap:butt;stroke-linejoin:round;}</style>
 </defs>
 <g id="figure_1">
  <g id="patch_1">
   <path d="M 0 288 
L 432 288 
L 432 0 
L 0 0 
z
" style="fill:none;"/>
  </g>
  <g id="axes_1">
   <g id="patch_2">
    <path d="M 54 252 
L 388.8 252 
L 388.8 34.56 
L 54 34.56 
z
" style="fill:#ffffff;"/>
   </g>
   <g id="PathCollection_1">
    <defs>
     <path d="M 0 3 
C 0.795609 3 1.55874 2.683901 2.12132 2.12132 
C 2.683901 1.55874 3 0.795609 3 0 
C 3 -0.795609 2.683901 -1.55874 2.12132 -2.12132 
C 1.55874 -2.683901 0.795609 -3 0 -3 
C -0.795609 -3 -1.55874 -2.683901 -2.12132 -2.12132 
C -2.683901 -1.55874 -3 -0.795609 -3 0 
C -3 0.795609 -2.683901 1.55874 -2.12132 2.12132 
C -1.55874 2.683901 -0.795609 3 0 3 
z
" id="m7a3b427811" style="stroke:#ffffff;stroke-width:0.48;"/>
    </defs>
    <g clip-path="url(#p54a2d16991)">
     <use style="fill:#1f77b4;stroke:#ffffff;stroke-width:0.48;" x="69.218182" xlink:href="#m7a3b427811" y="241.893587"/>
     <use style="fill:#1f77b4;stroke:#ffffff;stroke-width:0.48;" x="71.260891" xlink:href="#m7a3b427811" y="241.881023"/>
     <use style="fill:#1f77b4;stroke:#ffffff;stroke-width:0.48;" x="73.3036" xlink:href="#m7a3b427811" y="241.854511"/>
     <use style="fill:#1f77b4;stroke:#ffffff;stroke-width:0.48;" x="75.346309" xlink:href="#m7a3b427811" y="241.784021"/>
     <use style="fill:#1f77b4;stroke:#ffffff;stroke-width:0.48;" x="77.389018" xlink:href="#m7a3b427811" y="241.698454"/>
     <use style="fill:#1f77b4;stroke:#ffffff;stroke-width:0.48;" x="79.431727" xlink:href="#m7a3b427811" y="241.653095"/>
     <use style="fill:#1f77b4;stroke:#ffffff;stroke-width:0.48;" x="81.474436" xlink:href="#m7a3b427811" y="241.55358"/>
     <use style="fill:#1f77b4;stroke:#ffffff;stroke-width:0.48;" x="83.517145" xlink:href="#m7a3b427811" y="241.476934"/>
     <use style="fill:#1f77b4;stroke:#ffffff;stroke-width:0.48;" x="85.559854" xlink:href="#m7a3b427811" y="241.298135"/>
     <use style="fill:#1f77b4;stroke:#ffffff;stroke-width:0.48;" x="87.602563" xlink:href="#m7a3b427811" y="241.262954"/>
     <use style="fill:#1f77b4;stroke:#ffffff;stroke-width:0.48;" x="89.645272" xlink:href="#m7a3b427811" y="241.128132"/>
     <use style="fill:#1f77b4;stroke:#ffffff;stroke-width:0.48;" x="91.68798" xlink:href="#m7a3b427811" y="241.063925"/>
     <use style="fill:#1f77b4;stroke:#ffffff;stroke-width:0.48;" x="93.730689" xlink:href="#m7a3b427811" y="240.936768"/>
     <use style="fill:#1f77b4;stroke:#ffffff;stroke-width:0.48;" x="95.773398" xlink:href="#m7a3b427811" y="240.779455"/>
     <use style="fill:#1f77b4;stroke:#ffffff;stroke-width:0.48;" x="97.816107" xlink:href="#m7a3b427811" y="239.810196"/>
     <use style="fill:#1f77b4;stroke:#ffffff;stroke-width:0.48;" x="99.858816" xlink:href="#m7a3b427811" y="240.098436"/>
     <use style="fill:#1f77b4;stroke:#ffffff;stroke-width:0.48;" x="101.901525" xlink:href="#m7a3b427811" y="239.291516"/>
     <use style="fill:#1f77b4;stroke:#ffffff;stroke-width:0.48;" x="103.944234" xlink:href="#m7a3b427811" y="239.995278"/>
     <use style="fill:#1f77b4;stroke:#ffffff;stroke-width:0.48;" x="105.986943" xlink:href="#m7a3b427811" y="239.927302"/>
     <use style="fill:#1f77b4;stroke:#ffffff;stroke-width:0.48;" x="108.029652" xlink:href="#m7a3b427811" y="239.616194"/>
     <use style="fill:#1f77b4;stroke:#ffffff;stroke-width:0.48;" x="110.072361" xlink:href="#m7a3b427811" y="239.947406"/>
     <use style="fill:#1f77b4;stroke:#ffffff;stroke-width:0.48;" x="112.11507" xlink:href="#m7a3b427811" y="239.164359"/>
     <use style="fill:#1f77b4;stroke:#ffffff;stroke-width:0.48;" x="114.157779" xlink:href="#m7a3b427811" y="238.942714"/>
     <use style="fill:#1f77b4;stroke:#ffffff;stroke-width:0.48;" x="116.200488" xlink:href="#m7a3b427811" y="238.819452"/>
     <use style="fill:#1f77b4;stroke:#ffffff;stroke-width:0.48;" x="118.243197" xlink:href="#m7a3b427811" y="238.439363"/>
     <use style="fill:#1f77b4;stroke:#ffffff;stroke-width:0.48;" x="120.285906" xlink:href="#m7a3b427811" y="238.177384"/>
     <use style="fill:#1f77b4;stroke:#ffffff;stroke-width:0.48;" x="122.328615" xlink:href="#m7a3b427811" y="236.465412"/>
     <use style="fill:#1f77b4;stroke:#ffffff;stroke-width:0.48;" x="124.371324" xlink:href="#m7a3b427811" y="236.788959"/>
     <use style="fill:#1f77b4;stroke:#ffffff;stroke-width:0.48;" x="126.414033" xlink:href="#m7a3b427811" y="235.683748"/>
     <use style="fill:#1f77b4;stroke:#ffffff;stroke-width:0.48;" x="128.456742" xlink:href="#m7a3b427811" y="236.422691"/>
     <use style="fill:#1f77b4;stroke:#ffffff;stroke-width:0.48;" x="130.499451" xlink:href="#m7a3b427811" y="234.898189"/>
     <use style="fill:#1f77b4;stroke:#ffffff;stroke-width:0.48;" x="132.54216" xlink:href="#m7a3b427811" y="236.37218"/>
     <use style="fill:#1f77b4;stroke:#ffffff;stroke-width:0.48;" x="134.584869" xlink:href="#m7a3b427811" y="236.038707"/>
     <use style="fill:#1f77b4;stroke:#ffffff;stroke-width:0.48;" x="136.627578" xlink:href="#m7a3b427811" y="235.664775"/>
     <use style="fill:#1f77b4;stroke:#ffffff;stroke-width:0.48;" x="138.670287" xlink:href="#m7a3b427811" y="236.114222"/>
     <use style="fill:#1f77b4;stroke:#ffffff;stroke-width:0.48;" x="140.712996" xlink:href="#m7a3b427811" y="232.537867"/>
     <use style="fill:#1f77b4;stroke:#ffffff;stroke-width:0.48;" x="142.755705" xlink:href="#m7a3b427811" y="235.467129"/>
     <use style="fill:#1f77b4;stroke:#ffffff;stroke-width:0.48;" x="144.798414" xlink:href="#m7a3b427811" y="227.603242"/>
     <use style="fill:#1f77b4;stroke:#ffffff;stroke-width:0.48;" x="146.841123" xlink:href="#m7a3b427811" y="234.013115"/>
     <use style="fill:#1f77b4;stroke:#ffffff;stroke-width:0.48;" x="148.883832" xlink:href="#m7a3b427811" y="223.084014"/>
     <use style="fill:#1f77b4;stroke:#ffffff;stroke-width:0.48;" x="150.926541" xlink:href="#m7a3b427811" y="219.89026"/>
     <use style="fill:#1f77b4;stroke:#ffffff;stroke-width:0.48;" x="152.96925" xlink:href="#m7a3b427811" y="231.73346"/>
     <use style="fill:#1f77b4;stroke:#ffffff;stroke-width:0.48;" x="155.011959" xlink:href="#m7a3b427811" y="233.381225"/>
     <use style="fill:#1f77b4;stroke:#ffffff;stroke-width:0.48;" x="157.054667" xlink:href="#m7a3b427811" y="231.409913"/>
     <use style="fill:#1f77b4;stroke:#ffffff;stroke-width:0.48;" x="159.097376" xlink:href="#m7a3b427811" y="231.335654"/>
     <use style="fill:#1f77b4;stroke:#ffffff;stroke-width:0.48;" x="161.140085" xlink:href="#m7a3b427811" y="230.816974"/>
     <use style="fill:#1f77b4;stroke:#ffffff;stroke-width:0.48;" x="163.182794" xlink:href="#m7a3b427811" y="231.812745"/>
     <use style="fill:#1f77b4;stroke:#ffffff;stroke-width:0.48;" x="165.225503" xlink:href="#m7a3b427811" y="231.42876"/>
     <use style="fill:#1f77b4;stroke:#ffffff;stroke-width:0.48;" x="167.268212" xlink:href="#m7a3b427811" y="229.541885"/>
     <use style="fill:#1f77b4;stroke:#ffffff;stroke-width:0.48;" x="169.310921" xlink:href="#m7a3b427811" y="213.379616"/>
     <use style="fill:#1f77b4;stroke:#ffffff;stroke-width:0.48;" x="171.35363" xlink:href="#m7a3b427811" y="232.218089"/>
     <use style="fill:#1f77b4;stroke:#ffffff;stroke-width:0.48;" x="173.396339" xlink:href="#m7a3b427811" y="211.075836"/>
     <use style="fill:#1f77b4;stroke:#ffffff;stroke-width:0.48;" x="175.439048" xlink:href="#m7a3b427811" y="226.726964"/>
     <use style="fill:#1f77b4;stroke:#ffffff;stroke-width:0.48;" x="177.481757" xlink:href="#m7a3b427811" y="208.93339"/>
     <use style="fill:#1f77b4;stroke:#ffffff;stroke-width:0.48;" x="179.524466" xlink:href="#m7a3b427811" y="227.394161"/>
     <use style="fill:#1f77b4;stroke:#ffffff;stroke-width:0.48;" x="181.567175" xlink:href="#m7a3b427811" y="226.566007"/>
     <use style="fill:#1f77b4;stroke:#ffffff;stroke-width:0.48;" x="183.609884" xlink:href="#m7a3b427811" y="225.108098"/>
     <use style="fill:#1f77b4;stroke:#ffffff;stroke-width:0.48;" x="185.652593" xlink:href="#m7a3b427811" y="226.880633"/>
     <use style="fill:#1f77b4;stroke:#ffffff;stroke-width:0.48;" x="187.695302" xlink:href="#m7a3b427811" y="224.291126"/>
     <use style="fill:#1f77b4;stroke:#ffffff;stroke-width:0.48;" x="189.738011" xlink:href="#m7a3b427811" y="225.888632"/>
     <use style="fill:#1f77b4;stroke:#ffffff;stroke-width:0.48;" x="191.78072" xlink:href="#m7a3b427811" y="224.564414"/>
     <use style="fill:#1f77b4;stroke:#ffffff;stroke-width:0.48;" x="193.823429" xlink:href="#m7a3b427811" y="224.884065"/>
     <use style="fill:#1f77b4;stroke:#ffffff;stroke-width:0.48;" x="195.866138" xlink:href="#m7a3b427811" y="224.32769"/>
     <use style="fill:#1f77b4;stroke:#ffffff;stroke-width:0.48;" x="197.908847" xlink:href="#m7a3b427811" y="221.261094"/>
     <use style="fill:#1f77b4;stroke:#ffffff;stroke-width:0.48;" x="199.951556" xlink:href="#m7a3b427811" y="223.21494"/>
     <use style="fill:#1f77b4;stroke:#ffffff;stroke-width:0.48;" x="201.994265" xlink:href="#m7a3b427811" y="219.60202"/>
     <use style="fill:#1f77b4;stroke:#ffffff;stroke-width:0.48;" x="204.036974" xlink:href="#m7a3b427811" y="222.10709"/>
     <use style="fill:#1f77b4;stroke:#ffffff;stroke-width:0.48;" x="206.079683" xlink:href="#m7a3b427811" y="218.222265"/>
     <use style="fill:#1f77b4;stroke:#ffffff;stroke-width:0.48;" x="208.122392" xlink:href="#m7a3b427811" y="217.574041"/>
     <use style="fill:#1f77b4;stroke:#ffffff;stroke-width:0.48;" x="210.165101" xlink:href="#m7a3b427811" y="216.875431"/>
     <use style="fill:#1f77b4;stroke:#ffffff;stroke-width:0.48;" x="212.20781" xlink:href="#m7a3b427811" y="223.797702"/>
     <use style="fill:#1f77b4;stroke:#ffffff;stroke-width:0.48;" x="214.250519" xlink:href="#m7a3b427811" y="219.19655"/>
     <use style="fill:#1f77b4;stroke:#ffffff;stroke-width:0.48;" x="216.293228" xlink:href="#m7a3b427811" y="214.742911"/>
     <use style="fill:#1f77b4;stroke:#ffffff;stroke-width:0.48;" x="218.335937" xlink:href="#m7a3b427811" y="214.022815"/>
     <use style="fill:#1f77b4;stroke:#ffffff;stroke-width:0.48;" x="220.378646" xlink:href="#m7a3b427811" y="215.850635"/>
     <use style="fill:#1f77b4;stroke:#ffffff;stroke-width:0.48;" x="222.421354" xlink:href="#m7a3b427811" y="213.020762"/>
     <use style="fill:#1f77b4;stroke:#ffffff;stroke-width:0.48;" x="224.464063" xlink:href="#m7a3b427811" y="216.018"/>
     <use style="fill:#1f77b4;stroke:#ffffff;stroke-width:0.48;" x="226.506772" xlink:href="#m7a3b427811" y="215.067714"/>
     <use style="fill:#1f77b4;stroke:#ffffff;stroke-width:0.48;" x="228.549481" xlink:href="#m7a3b427811" y="209.802004"/>
     <use style="fill:#1f77b4;stroke:#ffffff;stroke-width:0.48;" x="230.59219" xlink:href="#m7a3b427811" y="210.155706"/>
     <use style="fill:#1f77b4;stroke:#ffffff;stroke-width:0.48;" x="232.634899" xlink:href="#m7a3b427811" y="212.024991"/>
     <use style="fill:#1f77b4;stroke:#ffffff;stroke-width:0.48;" x="234.677608" xlink:href="#m7a3b427811" y="212.72624"/>
     <use style="fill:#1f77b4;stroke:#ffffff;stroke-width:0.48;" x="236.720317" xlink:href="#m7a3b427811" y="207.192393"/>
     <use style="fill:#1f77b4;stroke:#ffffff;stroke-width:0.48;" x="238.763026" xlink:href="#m7a3b427811" y="206.113569"/>
     <use style="fill:#1f77b4;stroke:#ffffff;stroke-width:0.48;" x="240.805735" xlink:href="#m7a3b427811" y="215.420035"/>
     <use style="fill:#1f77b4;stroke:#ffffff;stroke-width:0.48;" x="242.848444" xlink:href="#m7a3b427811" y="204.421575"/>
     <use style="fill:#1f77b4;stroke:#ffffff;stroke-width:0.48;" x="244.891153" xlink:href="#m7a3b427811" y="203.074615"/>
     <use style="fill:#1f77b4;stroke:#ffffff;stroke-width:0.48;" x="246.933862" xlink:href="#m7a3b427811" y="201.153688"/>
     <use style="fill:#1f77b4;stroke:#ffffff;stroke-width:0.48;" x="248.976571" xlink:href="#m7a3b427811" y="202.299233"/>
     <use style="fill:#1f77b4;stroke:#ffffff;stroke-width:0.48;" x="251.01928" xlink:href="#m7a3b427811" y="185.51877"/>
     <use style="fill:#1f77b4;stroke:#ffffff;stroke-width:0.48;" x="253.061989" xlink:href="#m7a3b427811" y="200.125249"/>
     <use style="fill:#1f77b4;stroke:#ffffff;stroke-width:0.48;" x="255.104698" xlink:href="#m7a3b427811" y="205.432424"/>
     <use style="fill:#1f77b4;stroke:#ffffff;stroke-width:0.48;" x="257.147407" xlink:href="#m7a3b427811" y="203.824992"/>
     <use style="fill:#1f77b4;stroke:#ffffff;stroke-width:0.48;" x="259.190116" xlink:href="#m7a3b427811" y="197.369634"/>
     <use style="fill:#1f77b4;stroke:#ffffff;stroke-width:0.48;" x="261.232825" xlink:href="#m7a3b427811" y="202.096561"/>
     <use style="fill:#1f77b4;stroke:#ffffff;stroke-width:0.48;" x="263.275534" xlink:href="#m7a3b427811" y="198.602002"/>
     <use style="fill:#1f77b4;stroke:#ffffff;stroke-width:0.48;" x="265.318243" xlink:href="#m7a3b427811" y="195.263626"/>
     <use style="fill:#1f77b4;stroke:#ffffff;stroke-width:0.48;" x="267.360952" xlink:href="#m7a3b427811" y="193.304879"/>
     <use style="fill:#1f77b4;stroke:#ffffff;stroke-width:0.48;" x="269.403661" xlink:href="#m7a3b427811" y="192.932204"/>
     <use style="fill:#1f77b4;stroke:#ffffff;stroke-width:0.48;" x="271.44637" xlink:href="#m7a3b427811" y="186.63931"/>
     <use style="fill:#1f77b4;stroke:#ffffff;stroke-width:0.48;" x="273.489079" xlink:href="#m7a3b427811" y="198.205453"/>
     <use style="fill:#1f77b4;stroke:#ffffff;stroke-width:0.48;" x="275.531788" xlink:href="#m7a3b427811" y="192.834072"/>
     <use style="fill:#1f77b4;stroke:#ffffff;stroke-width:0.48;" x="277.574497" xlink:href="#m7a3b427811" y="188.615648"/>
     <use style="fill:#1f77b4;stroke:#ffffff;stroke-width:0.48;" x="279.617206" xlink:href="#m7a3b427811" y="187.523001"/>
     <use style="fill:#1f77b4;stroke:#ffffff;stroke-width:0.48;" x="281.659915" xlink:href="#m7a3b427811" y="186.564926"/>
     <use style="fill:#1f77b4;stroke:#ffffff;stroke-width:0.48;" x="283.702624" xlink:href="#m7a3b427811" y="184.20586"/>
     <use style="fill:#1f77b4;stroke:#ffffff;stroke-width:0.48;" x="285.745333" xlink:href="#m7a3b427811" y="188.093198"/>
     <use style="fill:#1f77b4;stroke:#ffffff;stroke-width:0.48;" x="287.788041" xlink:href="#m7a3b427811" y="192.030796"/>
     <use style="fill:#1f77b4;stroke:#ffffff;stroke-width:0.48;" x="289.83075" xlink:href="#m7a3b427811" y="190.284899"/>
     <use style="fill:#1f77b4;stroke:#ffffff;stroke-width:0.48;" x="291.873459" xlink:href="#m7a3b427811" y="186.035063"/>
     <use style="fill:#1f77b4;stroke:#ffffff;stroke-width:0.48;" x="293.916168" xlink:href="#m7a3b427811" y="180.159953"/>
     <use style="fill:#1f77b4;stroke:#ffffff;stroke-width:0.48;" x="295.958877" xlink:href="#m7a3b427811" y="179.48396"/>
     <use style="fill:#1f77b4;stroke:#ffffff;stroke-width:0.48;" x="298.001586" xlink:href="#m7a3b427811" y="186.043858"/>
     <use style="fill:#1f77b4;stroke:#ffffff;stroke-width:0.48;" x="300.044295" xlink:href="#m7a3b427811" y="183.400322"/>
     <use style="fill:#1f77b4;stroke:#ffffff;stroke-width:0.48;" x="302.087004" xlink:href="#m7a3b427811" y="184.801312"/>
     <use style="fill:#1f77b4;stroke:#ffffff;stroke-width:0.48;" x="304.129713" xlink:href="#m7a3b427811" y="176.432566"/>
     <use style="fill:#1f77b4;stroke:#ffffff;stroke-width:0.48;" x="306.172422" xlink:href="#m7a3b427811" y="183.712435"/>
     <use style="fill:#1f77b4;stroke:#ffffff;stroke-width:0.48;" x="308.215131" xlink:href="#m7a3b427811" y="173.614001"/>
     <use style="fill:#1f77b4;stroke:#ffffff;stroke-width:0.48;" x="310.25784" xlink:href="#m7a3b427811" y="176.33946"/>
     <use style="fill:#1f77b4;stroke:#ffffff;stroke-width:0.48;" x="312.300549" xlink:href="#m7a3b427811" y="169.963387"/>
     <use style="fill:#1f77b4;stroke:#ffffff;stroke-width:0.48;" x="314.343258" xlink:href="#m7a3b427811" y="170.782872"/>
     <use style="fill:#1f77b4;stroke:#ffffff;stroke-width:0.48;" x="316.385967" xlink:href="#m7a3b427811" y="167.143565"/>
     <use style="fill:#1f77b4;stroke:#ffffff;stroke-width:0.48;" x="318.428676" xlink:href="#m7a3b427811" y="166.880581"/>
     <use style="fill:#1f77b4;stroke:#ffffff;stroke-width:0.48;" x="320.471385" xlink:href="#m7a3b427811" y="109.375423"/>
     <use style="fill:#1f77b4;stroke:#ffffff;stroke-width:0.48;" x="322.514094" xlink:href="#m7a3b427811" y="174.233327"/>
     <use style="fill:#1f77b4;stroke:#ffffff;stroke-width:0.48;" x="324.556803" xlink:href="#m7a3b427811" y="164.229256"/>
     <use style="fill:#1f77b4;stroke:#ffffff;stroke-width:0.48;" x="326.599512" xlink:href="#m7a3b427811" y="172.525125"/>
     <use style="fill:#1f77b4;stroke:#ffffff;stroke-width:0.48;" x="328.642221" xlink:href="#m7a3b427811" y="169.736841"/>
     <use style="fill:#1f77b4;stroke:#ffffff;stroke-width:0.48;" x="330.68493" xlink:href="#m7a3b427811" y="158.863026"/>
     <use style="fill:#1f77b4;stroke:#ffffff;stroke-width:0.48;" x="332.727639" xlink:href="#m7a3b427811" y="157.612941"/>
     <use style="fill:#1f77b4;stroke:#ffffff;stroke-width:0.48;" x="334.770348" xlink:href="#m7a3b427811" y="156.919231"/>
     <use style="fill:#1f77b4;stroke:#ffffff;stroke-width:0.48;" x="336.813057" xlink:href="#m7a3b427811" y="112.423674"/>
     <use style="fill:#1f77b4;stroke:#ffffff;stroke-width:0.48;" x="338.855766" xlink:href="#m7a3b427811" y="90.092025"/>
     <use style="fill:#1f77b4;stroke:#ffffff;stroke-width:0.48;" x="340.898475" xlink:href="#m7a3b427811" y="137.130221"/>
     <use style="fill:#1f77b4;stroke:#ffffff;stroke-width:0.48;" x="342.941184" xlink:href="#m7a3b427811" y="116.475236"/>
     <use style="fill:#1f77b4;stroke:#ffffff;stroke-width:0.48;" x="344.983893" xlink:href="#m7a3b427811" y="163.121657"/>
     <use style="fill:#1f77b4;stroke:#ffffff;stroke-width:0.48;" x="347.026602" xlink:href="#m7a3b427811" y="155.728453"/>
     <use style="fill:#1f77b4;stroke:#ffffff;stroke-width:0.48;" x="349.069311" xlink:href="#m7a3b427811" y="154.715091"/>
     <use style="fill:#1f77b4;stroke:#ffffff;stroke-width:0.48;" x="351.11202" xlink:href="#m7a3b427811" y="159.020213"/>
     <use style="fill:#1f77b4;stroke:#ffffff;stroke-width:0.48;" x="353.154728" xlink:href="#m7a3b427811" y="150.288969"/>
     <use style="fill:#1f77b4;stroke:#ffffff;stroke-width:0.48;" x="355.197437" xlink:href="#m7a3b427811" y="142.995279"/>
     <use style="fill:#1f77b4;stroke:#ffffff;stroke-width:0.48;" x="357.240146" xlink:href="#m7a3b427811" y="53.884924"/>
     <use style="fill:#1f77b4;stroke:#ffffff;stroke-width:0.48;" x="359.282855" xlink:href="#m7a3b427811" y="155.78512"/>
     <use style="fill:#1f77b4;stroke:#ffffff;stroke-width:0.48;" x="361.325564" xlink:href="#m7a3b427811" y="125.102065"/>
     <use style="fill:#1f77b4;stroke:#ffffff;stroke-width:0.48;" x="363.368273" xlink:href="#m7a3b427811" y="140.39572"/>
     <use style="fill:#1f77b4;stroke:#ffffff;stroke-width:0.48;" x="365.410982" xlink:href="#m7a3b427811" y="135.940699"/>
     <use style="fill:#1f77b4;stroke:#ffffff;stroke-width:0.48;" x="367.453691" xlink:href="#m7a3b427811" y="135.228268"/>
     <use style="fill:#1f77b4;stroke:#ffffff;stroke-width:0.48;" x="369.4964" xlink:href="#m7a3b427811" y="44.443636"/>
     <use style="fill:#1f77b4;stroke:#ffffff;stroke-width:0.48;" x="371.539109" xlink:href="#m7a3b427811" y="148.603384"/>
     <use style="fill:#1f77b4;stroke:#ffffff;stroke-width:0.48;" x="373.581818" xlink:href="#m7a3b427811" y="144.891075"/>
    </g>
   </g>
   <g id="matplotlib.axis_1">
    <g id="xtick_1">
     <g id="line2d_1">
      <defs>
       <path d="M 0 0 
L 0 3.5 
" id="m26aefe4af3" style="stroke:#000000;stroke-width:0.8;"/>
      </defs>
      <g>
       <use style="stroke:#000000;stroke-width:0.8;" x="69.218182" xlink:href="#m26aefe4af3" y="252"/>
      </g>
     </g>
     <g id="text_1">
      <!-- 0 -->
      <g transform="translate(66.036932 266.598437)scale(0.1 -0.1)">
       <defs>
        <path d="M 31.78125 66.40625 
Q 24.171875 66.40625 20.328125 58.90625 
Q 16.5 51.421875 16.5 36.375 
Q 16.5 21.390625 20.328125 13.890625 
Q 24.171875 6.390625 31.78125 6.390625 
Q 39.453125 6.390625 43.28125 13.890625 
Q 47.125 21.390625 47.125 36.375 
Q 47.125 51.421875 43.28125 58.90625 
Q 39.453125 66.40625 31.78125 66.40625 
z
M 31.78125 74.21875 
Q 44.046875 74.21875 50.515625 64.515625 
Q 56.984375 54.828125 56.984375 36.375 
Q 56.984375 17.96875 50.515625 8.265625 
Q 44.046875 -1.421875 31.78125 -1.421875 
Q 19.53125 -1.421875 13.0625 8.265625 
Q 6.59375 17.96875 6.59375 36.375 
Q 6.59375 54.828125 13.0625 64.515625 
Q 19.53125 74.21875 31.78125 74.21875 
z
" id="DejaVuSans-48"/>
       </defs>
       <use xlink:href="#DejaVuSans-48"/>
      </g>
     </g>
    </g>
    <g id="xtick_2">
     <g id="line2d_2">
      <g>
       <use style="stroke:#000000;stroke-width:0.8;" x="110.072361" xlink:href="#m26aefe4af3" y="252"/>
      </g>
     </g>
     <g id="text_2">
      <!-- 20 -->
      <g transform="translate(103.709861 266.598437)scale(0.1 -0.1)">
       <defs>
        <path d="M 19.1875 8.296875 
L 53.609375 8.296875 
L 53.609375 0 
L 7.328125 0 
L 7.328125 8.296875 
Q 12.9375 14.109375 22.625 23.890625 
Q 32.328125 33.6875 34.8125 36.53125 
Q 39.546875 41.84375 41.421875 45.53125 
Q 43.3125 49.21875 43.3125 52.78125 
Q 43.3125 58.59375 39.234375 62.25 
Q 35.15625 65.921875 28.609375 65.921875 
Q 23.96875 65.921875 18.8125 64.3125 
Q 13.671875 62.703125 7.8125 59.421875 
L 7.8125 69.390625 
Q 13.765625 71.78125 18.9375 73 
Q 24.125 74.21875 28.421875 74.21875 
Q 39.75 74.21875 46.484375 68.546875 
Q 53.21875 62.890625 53.21875 53.421875 
Q 53.21875 48.921875 51.53125 44.890625 
Q 49.859375 40.875 45.40625 35.40625 
Q 44.1875 33.984375 37.640625 27.21875 
Q 31.109375 20.453125 19.1875 8.296875 
z
" id="DejaVuSans-50"/>
       </defs>
       <use xlink:href="#DejaVuSans-50"/>
       <use x="63.623047" xlink:href="#DejaVuSans-48"/>
      </g>
     </g>
    </g>
    <g id="xtick_3">
     <g id="line2d_3">
      <g>
       <use style="stroke:#000000;stroke-width:0.8;" x="150.926541" xlink:href="#m26aefe4af3" y="252"/>
      </g>
     </g>
     <g id="text_3">
      <!-- 40 -->
      <g transform="translate(144.564041 266.598437)scale(0.1 -0.1)">
       <defs>
        <path d="M 37.796875 64.3125 
L 12.890625 25.390625 
L 37.796875 25.390625 
z
M 35.203125 72.90625 
L 47.609375 72.90625 
L 47.609375 25.390625 
L 58.015625 25.390625 
L 58.015625 17.1875 
L 47.609375 17.1875 
L 47.609375 0 
L 37.796875 0 
L 37.796875 17.1875 
L 4.890625 17.1875 
L 4.890625 26.703125 
z
" id="DejaVuSans-52"/>
       </defs>
       <use xlink:href="#DejaVuSans-52"/>
       <use x="63.623047" xlink:href="#DejaVuSans-48"/>
      </g>
     </g>
    </g>
    <g id="xtick_4">
     <g id="line2d_4">
      <g>
       <use style="stroke:#000000;stroke-width:0.8;" x="191.78072" xlink:href="#m26aefe4af3" y="252"/>
      </g>
     </g>
     <g id="text_4">
      <!-- 60 -->
      <g transform="translate(185.41822 266.598437)scale(0.1 -0.1)">
       <defs>
        <path d="M 33.015625 40.375 
Q 26.375 40.375 22.484375 35.828125 
Q 18.609375 31.296875 18.609375 23.390625 
Q 18.609375 15.53125 22.484375 10.953125 
Q 26.375 6.390625 33.015625 6.390625 
Q 39.65625 6.390625 43.53125 10.953125 
Q 47.40625 15.53125 47.40625 23.390625 
Q 47.40625 31.296875 43.53125 35.828125 
Q 39.65625 40.375 33.015625 40.375 
z
M 52.59375 71.296875 
L 52.59375 62.3125 
Q 48.875 64.0625 45.09375 64.984375 
Q 41.3125 65.921875 37.59375 65.921875 
Q 27.828125 65.921875 22.671875 59.328125 
Q 17.53125 52.734375 16.796875 39.40625 
Q 19.671875 43.65625 24.015625 45.921875 
Q 28.375 48.1875 33.59375 48.1875 
Q 44.578125 48.1875 50.953125 41.515625 
Q 57.328125 34.859375 57.328125 23.390625 
Q 57.328125 12.15625 50.6875 5.359375 
Q 44.046875 -1.421875 33.015625 -1.421875 
Q 20.359375 -1.421875 13.671875 8.265625 
Q 6.984375 17.96875 6.984375 36.375 
Q 6.984375 53.65625 15.1875 63.9375 
Q 23.390625 74.21875 37.203125 74.21875 
Q 40.921875 74.21875 44.703125 73.484375 
Q 48.484375 72.75 52.59375 71.296875 
z
" id="DejaVuSans-54"/>
       </defs>
       <use xlink:href="#DejaVuSans-54"/>
       <use x="63.623047" xlink:href="#DejaVuSans-48"/>
      </g>
     </g>
    </g>
    <g id="xtick_5">
     <g id="line2d_5">
      <g>
       <use style="stroke:#000000;stroke-width:0.8;" x="232.634899" xlink:href="#m26aefe4af3" y="252"/>
      </g>
     </g>
     <g id="text_5">
      <!-- 80 -->
      <g transform="translate(226.272399 266.598437)scale(0.1 -0.1)">
       <defs>
        <path d="M 31.78125 34.625 
Q 24.75 34.625 20.71875 30.859375 
Q 16.703125 27.09375 16.703125 20.515625 
Q 16.703125 13.921875 20.71875 10.15625 
Q 24.75 6.390625 31.78125 6.390625 
Q 38.8125 6.390625 42.859375 10.171875 
Q 46.921875 13.96875 46.921875 20.515625 
Q 46.921875 27.09375 42.890625 30.859375 
Q 38.875 34.625 31.78125 34.625 
z
M 21.921875 38.8125 
Q 15.578125 40.375 12.03125 44.71875 
Q 8.5 49.078125 8.5 55.328125 
Q 8.5 64.0625 14.71875 69.140625 
Q 20.953125 74.21875 31.78125 74.21875 
Q 42.671875 74.21875 48.875 69.140625 
Q 55.078125 64.0625 55.078125 55.328125 
Q 55.078125 49.078125 51.53125 44.71875 
Q 48 40.375 41.703125 38.8125 
Q 48.828125 37.15625 52.796875 32.3125 
Q 56.78125 27.484375 56.78125 20.515625 
Q 56.78125 9.90625 50.3125 4.234375 
Q 43.84375 -1.421875 31.78125 -1.421875 
Q 19.734375 -1.421875 13.25 4.234375 
Q 6.78125 9.90625 6.78125 20.515625 
Q 6.78125 27.484375 10.78125 32.3125 
Q 14.796875 37.15625 21.921875 38.8125 
z
M 18.3125 54.390625 
Q 18.3125 48.734375 21.84375 45.5625 
Q 25.390625 42.390625 31.78125 42.390625 
Q 38.140625 42.390625 41.71875 45.5625 
Q 45.3125 48.734375 45.3125 54.390625 
Q 45.3125 60.0625 41.71875 63.234375 
Q 38.140625 66.40625 31.78125 66.40625 
Q 25.390625 66.40625 21.84375 63.234375 
Q 18.3125 60.0625 18.3125 54.390625 
z
" id="DejaVuSans-56"/>
       </defs>
       <use xlink:href="#DejaVuSans-56"/>
       <use x="63.623047" xlink:href="#DejaVuSans-48"/>
      </g>
     </g>
    </g>
    <g id="xtick_6">
     <g id="line2d_6">
      <g>
       <use style="stroke:#000000;stroke-width:0.8;" x="273.489079" xlink:href="#m26aefe4af3" y="252"/>
      </g>
     </g>
     <g id="text_6">
      <!-- 100 -->
      <g transform="translate(263.945329 266.598437)scale(0.1 -0.1)">
       <defs>
        <path d="M 12.40625 8.296875 
L 28.515625 8.296875 
L 28.515625 63.921875 
L 10.984375 60.40625 
L 10.984375 69.390625 
L 28.421875 72.90625 
L 38.28125 72.90625 
L 38.28125 8.296875 
L 54.390625 8.296875 
L 54.390625 0 
L 12.40625 0 
z
" id="DejaVuSans-49"/>
       </defs>
       <use xlink:href="#DejaVuSans-49"/>
       <use x="63.623047" xlink:href="#DejaVuSans-48"/>
       <use x="127.246094" xlink:href="#DejaVuSans-48"/>
      </g>
     </g>
    </g>
    <g id="xtick_7">
     <g id="line2d_7">
      <g>
       <use style="stroke:#000000;stroke-width:0.8;" x="314.343258" xlink:href="#m26aefe4af3" y="252"/>
      </g>
     </g>
     <g id="text_7">
      <!-- 120 -->
      <g transform="translate(304.799508 266.598437)scale(0.1 -0.1)">
       <use xlink:href="#DejaVuSans-49"/>
       <use x="63.623047" xlink:href="#DejaVuSans-50"/>
       <use x="127.246094" xlink:href="#DejaVuSans-48"/>
      </g>
     </g>
    </g>
    <g id="xtick_8">
     <g id="line2d_8">
      <g>
       <use style="stroke:#000000;stroke-width:0.8;" x="355.197437" xlink:href="#m26aefe4af3" y="252"/>
      </g>
     </g>
     <g id="text_8">
      <!-- 140 -->
      <g transform="translate(345.653687 266.598437)scale(0.1 -0.1)">
       <use xlink:href="#DejaVuSans-49"/>
       <use x="63.623047" xlink:href="#DejaVuSans-52"/>
       <use x="127.246094" xlink:href="#DejaVuSans-48"/>
      </g>
     </g>
    </g>
    <g id="text_9">
     <!-- n -->
     <g transform="translate(218.23125 280.276563)scale(0.1 -0.1)">
      <defs>
       <path d="M 54.890625 33.015625 
L 54.890625 0 
L 45.90625 0 
L 45.90625 32.71875 
Q 45.90625 40.484375 42.875 44.328125 
Q 39.84375 48.1875 33.796875 48.1875 
Q 26.515625 48.1875 22.3125 43.546875 
Q 18.109375 38.921875 18.109375 30.90625 
L 18.109375 0 
L 9.078125 0 
L 9.078125 54.6875 
L 18.109375 54.6875 
L 18.109375 46.1875 
Q 21.34375 51.125 25.703125 53.5625 
Q 30.078125 56 35.796875 56 
Q 45.21875 56 50.046875 50.171875 
Q 54.890625 44.34375 54.890625 33.015625 
z
" id="DejaVuSans-110"/>
      </defs>
      <use xlink:href="#DejaVuSans-110"/>
     </g>
    </g>
   </g>
   <g id="matplotlib.axis_2">
    <g id="ytick_1">
     <g id="line2d_9">
      <defs>
       <path d="M 0 0 
L -3.5 0 
" id="m51490370c5" style="stroke:#000000;stroke-width:0.8;"/>
      </defs>
      <g>
       <use style="stroke:#000000;stroke-width:0.8;" x="54" xlink:href="#m51490370c5" y="242.116364"/>
      </g>
     </g>
     <g id="text_10">
      <!-- 0.0 -->
      <g transform="translate(31.096875 245.915582)scale(0.1 -0.1)">
       <defs>
        <path d="M 10.6875 12.40625 
L 21 12.40625 
L 21 0 
L 10.6875 0 
z
" id="DejaVuSans-46"/>
       </defs>
       <use xlink:href="#DejaVuSans-48"/>
       <use x="63.623047" xlink:href="#DejaVuSans-46"/>
       <use x="95.410156" xlink:href="#DejaVuSans-48"/>
      </g>
     </g>
    </g>
    <g id="ytick_2">
     <g id="line2d_10">
      <g>
       <use style="stroke:#000000;stroke-width:0.8;" x="54" xlink:href="#m51490370c5" y="216.986505"/>
      </g>
     </g>
     <g id="text_11">
      <!-- 0.2 -->
      <g transform="translate(31.096875 220.785723)scale(0.1 -0.1)">
       <use xlink:href="#DejaVuSans-48"/>
       <use x="63.623047" xlink:href="#DejaVuSans-46"/>
       <use x="95.410156" xlink:href="#DejaVuSans-50"/>
      </g>
     </g>
    </g>
    <g id="ytick_3">
     <g id="line2d_11">
      <g>
       <use style="stroke:#000000;stroke-width:0.8;" x="54" xlink:href="#m51490370c5" y="191.856646"/>
      </g>
     </g>
     <g id="text_12">
      <!-- 0.4 -->
      <g transform="translate(31.096875 195.655864)scale(0.1 -0.1)">
       <use xlink:href="#DejaVuSans-48"/>
       <use x="63.623047" xlink:href="#DejaVuSans-46"/>
       <use x="95.410156" xlink:href="#DejaVuSans-52"/>
      </g>
     </g>
    </g>
    <g id="ytick_4">
     <g id="line2d_12">
      <g>
       <use style="stroke:#000000;stroke-width:0.8;" x="54" xlink:href="#m51490370c5" y="166.726787"/>
      </g>
     </g>
     <g id="text_13">
      <!-- 0.6 -->
      <g transform="translate(31.096875 170.526005)scale(0.1 -0.1)">
       <use xlink:href="#DejaVuSans-48"/>
       <use x="63.623047" xlink:href="#DejaVuSans-46"/>
       <use x="95.410156" xlink:href="#DejaVuSans-54"/>
      </g>
     </g>
    </g>
    <g id="ytick_5">
     <g id="line2d_13">
      <g>
       <use style="stroke:#000000;stroke-width:0.8;" x="54" xlink:href="#m51490370c5" y="141.596928"/>
      </g>
     </g>
     <g id="text_14">
      <!-- 0.8 -->
      <g transform="translate(31.096875 145.396146)scale(0.1 -0.1)">
       <use xlink:href="#DejaVuSans-48"/>
       <use x="63.623047" xlink:href="#DejaVuSans-46"/>
       <use x="95.410156" xlink:href="#DejaVuSans-56"/>
      </g>
     </g>
    </g>
    <g id="ytick_6">
     <g id="line2d_14">
      <g>
       <use style="stroke:#000000;stroke-width:0.8;" x="54" xlink:href="#m51490370c5" y="116.467069"/>
      </g>
     </g>
     <g id="text_15">
      <!-- 1.0 -->
      <g transform="translate(31.096875 120.266287)scale(0.1 -0.1)">
       <use xlink:href="#DejaVuSans-49"/>
       <use x="63.623047" xlink:href="#DejaVuSans-46"/>
       <use x="95.410156" xlink:href="#DejaVuSans-48"/>
      </g>
     </g>
    </g>
    <g id="ytick_7">
     <g id="line2d_15">
      <g>
       <use style="stroke:#000000;stroke-width:0.8;" x="54" xlink:href="#m51490370c5" y="91.33721"/>
      </g>
     </g>
     <g id="text_16">
      <!-- 1.2 -->
      <g transform="translate(31.096875 95.136428)scale(0.1 -0.1)">
       <use xlink:href="#DejaVuSans-49"/>
       <use x="63.623047" xlink:href="#DejaVuSans-46"/>
       <use x="95.410156" xlink:href="#DejaVuSans-50"/>
      </g>
     </g>
    </g>
    <g id="ytick_8">
     <g id="line2d_16">
      <g>
       <use style="stroke:#000000;stroke-width:0.8;" x="54" xlink:href="#m51490370c5" y="66.207351"/>
      </g>
     </g>
     <g id="text_17">
      <!-- 1.4 -->
      <g transform="translate(31.096875 70.006569)scale(0.1 -0.1)">
       <use xlink:href="#DejaVuSans-49"/>
       <use x="63.623047" xlink:href="#DejaVuSans-46"/>
       <use x="95.410156" xlink:href="#DejaVuSans-52"/>
      </g>
     </g>
    </g>
    <g id="ytick_9">
     <g id="line2d_17">
      <g>
       <use style="stroke:#000000;stroke-width:0.8;" x="54" xlink:href="#m51490370c5" y="41.077492"/>
      </g>
     </g>
     <g id="text_18">
      <!-- 1.6 -->
      <g transform="translate(31.096875 44.876711)scale(0.1 -0.1)">
       <use xlink:href="#DejaVuSans-49"/>
       <use x="63.623047" xlink:href="#DejaVuSans-46"/>
       <use x="95.410156" xlink:href="#DejaVuSans-54"/>
      </g>
     </g>
    </g>
    <g id="text_19">
     <!-- tiempo (ms) -->
     <g transform="translate(25.017187 173.775312)rotate(-90)scale(0.1 -0.1)">
      <defs>
       <path d="M 18.3125 70.21875 
L 18.3125 54.6875 
L 36.8125 54.6875 
L 36.8125 47.703125 
L 18.3125 47.703125 
L 18.3125 18.015625 
Q 18.3125 11.328125 20.140625 9.421875 
Q 21.96875 7.515625 27.59375 7.515625 
L 36.8125 7.515625 
L 36.8125 0 
L 27.59375 0 
Q 17.1875 0 13.234375 3.875 
Q 9.28125 7.765625 9.28125 18.015625 
L 9.28125 47.703125 
L 2.6875 47.703125 
L 2.6875 54.6875 
L 9.28125 54.6875 
L 9.28125 70.21875 
z
" id="DejaVuSans-116"/>
       <path d="M 9.421875 54.6875 
L 18.40625 54.6875 
L 18.40625 0 
L 9.421875 0 
z
M 9.421875 75.984375 
L 18.40625 75.984375 
L 18.40625 64.59375 
L 9.421875 64.59375 
z
" id="DejaVuSans-105"/>
       <path d="M 56.203125 29.59375 
L 56.203125 25.203125 
L 14.890625 25.203125 
Q 15.484375 15.921875 20.484375 11.0625 
Q 25.484375 6.203125 34.421875 6.203125 
Q 39.59375 6.203125 44.453125 7.46875 
Q 49.3125 8.734375 54.109375 11.28125 
L 54.109375 2.78125 
Q 49.265625 0.734375 44.1875 -0.34375 
Q 39.109375 -1.421875 33.890625 -1.421875 
Q 20.796875 -1.421875 13.15625 6.1875 
Q 5.515625 13.8125 5.515625 26.8125 
Q 5.515625 40.234375 12.765625 48.109375 
Q 20.015625 56 32.328125 56 
Q 43.359375 56 49.78125 48.890625 
Q 56.203125 41.796875 56.203125 29.59375 
z
M 47.21875 32.234375 
Q 47.125 39.59375 43.09375 43.984375 
Q 39.0625 48.390625 32.421875 48.390625 
Q 24.90625 48.390625 20.390625 44.140625 
Q 15.875 39.890625 15.1875 32.171875 
z
" id="DejaVuSans-101"/>
       <path d="M 52 44.1875 
Q 55.375 50.25 60.0625 53.125 
Q 64.75 56 71.09375 56 
Q 79.640625 56 84.28125 50.015625 
Q 88.921875 44.046875 88.921875 33.015625 
L 88.921875 0 
L 79.890625 0 
L 79.890625 32.71875 
Q 79.890625 40.578125 77.09375 44.375 
Q 74.3125 48.1875 68.609375 48.1875 
Q 61.625 48.1875 57.5625 43.546875 
Q 53.515625 38.921875 53.515625 30.90625 
L 53.515625 0 
L 44.484375 0 
L 44.484375 32.71875 
Q 44.484375 40.625 41.703125 44.40625 
Q 38.921875 48.1875 33.109375 48.1875 
Q 26.21875 48.1875 22.15625 43.53125 
Q 18.109375 38.875 18.109375 30.90625 
L 18.109375 0 
L 9.078125 0 
L 9.078125 54.6875 
L 18.109375 54.6875 
L 18.109375 46.1875 
Q 21.1875 51.21875 25.484375 53.609375 
Q 29.78125 56 35.6875 56 
Q 41.65625 56 45.828125 52.96875 
Q 50 49.953125 52 44.1875 
z
" id="DejaVuSans-109"/>
       <path d="M 18.109375 8.203125 
L 18.109375 -20.796875 
L 9.078125 -20.796875 
L 9.078125 54.6875 
L 18.109375 54.6875 
L 18.109375 46.390625 
Q 20.953125 51.265625 25.265625 53.625 
Q 29.59375 56 35.59375 56 
Q 45.5625 56 51.78125 48.09375 
Q 58.015625 40.1875 58.015625 27.296875 
Q 58.015625 14.40625 51.78125 6.484375 
Q 45.5625 -1.421875 35.59375 -1.421875 
Q 29.59375 -1.421875 25.265625 0.953125 
Q 20.953125 3.328125 18.109375 8.203125 
z
M 48.6875 27.296875 
Q 48.6875 37.203125 44.609375 42.84375 
Q 40.53125 48.484375 33.40625 48.484375 
Q 26.265625 48.484375 22.1875 42.84375 
Q 18.109375 37.203125 18.109375 27.296875 
Q 18.109375 17.390625 22.1875 11.75 
Q 26.265625 6.109375 33.40625 6.109375 
Q 40.53125 6.109375 44.609375 11.75 
Q 48.6875 17.390625 48.6875 27.296875 
z
" id="DejaVuSans-112"/>
       <path d="M 30.609375 48.390625 
Q 23.390625 48.390625 19.1875 42.75 
Q 14.984375 37.109375 14.984375 27.296875 
Q 14.984375 17.484375 19.15625 11.84375 
Q 23.34375 6.203125 30.609375 6.203125 
Q 37.796875 6.203125 41.984375 11.859375 
Q 46.1875 17.53125 46.1875 27.296875 
Q 46.1875 37.015625 41.984375 42.703125 
Q 37.796875 48.390625 30.609375 48.390625 
z
M 30.609375 56 
Q 42.328125 56 49.015625 48.375 
Q 55.71875 40.765625 55.71875 27.296875 
Q 55.71875 13.875 49.015625 6.21875 
Q 42.328125 -1.421875 30.609375 -1.421875 
Q 18.84375 -1.421875 12.171875 6.21875 
Q 5.515625 13.875 5.515625 27.296875 
Q 5.515625 40.765625 12.171875 48.375 
Q 18.84375 56 30.609375 56 
z
" id="DejaVuSans-111"/>
       <path id="DejaVuSans-32"/>
       <path d="M 31 75.875 
Q 24.46875 64.65625 21.28125 53.65625 
Q 18.109375 42.671875 18.109375 31.390625 
Q 18.109375 20.125 21.3125 9.0625 
Q 24.515625 -2 31 -13.1875 
L 23.1875 -13.1875 
Q 15.875 -1.703125 12.234375 9.375 
Q 8.59375 20.453125 8.59375 31.390625 
Q 8.59375 42.28125 12.203125 53.3125 
Q 15.828125 64.359375 23.1875 75.875 
z
" id="DejaVuSans-40"/>
       <path d="M 44.28125 53.078125 
L 44.28125 44.578125 
Q 40.484375 46.53125 36.375 47.5 
Q 32.28125 48.484375 27.875 48.484375 
Q 21.1875 48.484375 17.84375 46.4375 
Q 14.5 44.390625 14.5 40.28125 
Q 14.5 37.15625 16.890625 35.375 
Q 19.28125 33.59375 26.515625 31.984375 
L 29.59375 31.296875 
Q 39.15625 29.25 43.1875 25.515625 
Q 47.21875 21.78125 47.21875 15.09375 
Q 47.21875 7.46875 41.1875 3.015625 
Q 35.15625 -1.421875 24.609375 -1.421875 
Q 20.21875 -1.421875 15.453125 -0.5625 
Q 10.6875 0.296875 5.421875 2 
L 5.421875 11.28125 
Q 10.40625 8.6875 15.234375 7.390625 
Q 20.0625 6.109375 24.8125 6.109375 
Q 31.15625 6.109375 34.5625 8.28125 
Q 37.984375 10.453125 37.984375 14.40625 
Q 37.984375 18.0625 35.515625 20.015625 
Q 33.0625 21.96875 24.703125 23.78125 
L 21.578125 24.515625 
Q 13.234375 26.265625 9.515625 29.90625 
Q 5.8125 33.546875 5.8125 39.890625 
Q 5.8125 47.609375 11.28125 51.796875 
Q 16.75 56 26.8125 56 
Q 31.78125 56 36.171875 55.265625 
Q 40.578125 54.546875 44.28125 53.078125 
z
" id="DejaVuSans-115"/>
       <path d="M 8.015625 75.875 
L 15.828125 75.875 
Q 23.140625 64.359375 26.78125 53.3125 
Q 30.421875 42.28125 30.421875 31.390625 
Q 30.421875 20.453125 26.78125 9.375 
Q 23.140625 -1.703125 15.828125 -13.1875 
L 8.015625 -13.1875 
Q 14.5 -2 17.703125 9.0625 
Q 20.90625 20.125 20.90625 31.390625 
Q 20.90625 42.671875 17.703125 53.65625 
Q 14.5 64.65625 8.015625 75.875 
z
" id="DejaVuSans-41"/>
      </defs>
      <use xlink:href="#DejaVuSans-116"/>
      <use x="39.208984" xlink:href="#DejaVuSans-105"/>
      <use x="66.992188" xlink:href="#DejaVuSans-101"/>
      <use x="128.515625" xlink:href="#DejaVuSans-109"/>
      <use x="225.927734" xlink:href="#DejaVuSans-112"/>
      <use x="289.404297" xlink:href="#DejaVuSans-111"/>
      <use x="350.585938" xlink:href="#DejaVuSans-32"/>
      <use x="382.373047" xlink:href="#DejaVuSans-40"/>
      <use x="421.386719" xlink:href="#DejaVuSans-109"/>
      <use x="518.798828" xlink:href="#DejaVuSans-115"/>
      <use x="570.898438" xlink:href="#DejaVuSans-41"/>
     </g>
    </g>
   </g>
   <g id="line2d_18">
    <path clip-path="url(#p54a2d16991)" d="M 69.218182 242.116364 
L 79.431727 242.00485 
L 89.645272 241.670309 
L 99.858816 241.11274 
L 110.072361 240.332144 
L 120.285906 239.32852 
L 130.499451 238.101869 
L 140.712996 236.65219 
L 150.926541 234.979484 
L 161.140085 233.08375 
L 171.35363 230.964989 
L 181.567175 228.6232 
L 191.78072 226.058384 
L 201.994265 223.27054 
L 212.20781 220.259669 
L 222.421354 217.02577 
L 232.634899 213.568844 
L 242.848444 209.88889 
L 253.061989 205.985909 
L 263.275534 201.8599 
L 273.489079 197.510864 
L 283.702624 192.9388 
L 293.916168 188.143709 
L 304.129713 183.12559 
L 314.343258 177.884444 
L 324.556803 172.42027 
L 334.770348 166.733069 
L 344.983893 160.82284 
L 355.197437 154.689584 
L 365.410982 148.333301 
L 373.581818 143.087694 
L 373.581818 143.087694 
" style="fill:none;stroke:#ffa500;stroke-linecap:square;stroke-width:1.5;"/>
   </g>
   <g id="patch_3">
    <path d="M 54 252 
L 54 34.56 
" style="fill:none;stroke:#000000;stroke-linecap:square;stroke-linejoin:miter;stroke-width:0.8;"/>
   </g>
   <g id="patch_4">
    <path d="M 388.8 252 
L 388.8 34.56 
" style="fill:none;stroke:#000000;stroke-linecap:square;stroke-linejoin:miter;stroke-width:0.8;"/>
   </g>
   <g id="patch_5">
    <path d="M 54 252 
L 388.8 252 
" style="fill:none;stroke:#000000;stroke-linecap:square;stroke-linejoin:miter;stroke-width:0.8;"/>
   </g>
   <g id="patch_6">
    <path d="M 54 34.56 
L 388.8 34.56 
" style="fill:none;stroke:#000000;stroke-linecap:square;stroke-linejoin:miter;stroke-width:0.8;"/>
   </g>
   <g id="legend_1">
    <g id="patch_7">
     <path d="M 61 71.91625 
L 129.754687 71.91625 
Q 131.754687 71.91625 131.754687 69.91625 
L 131.754687 41.56 
Q 131.754687 39.56 129.754687 39.56 
L 61 39.56 
Q 59 39.56 59 41.56 
L 59 69.91625 
Q 59 71.91625 61 71.91625 
z
" style="fill:#ffffff;opacity:0.8;stroke:#cccccc;stroke-linejoin:miter;"/>
    </g>
    <g id="line2d_19">
     <path d="M 63 47.658437 
L 83 47.658437 
" style="fill:none;stroke:#ffa500;stroke-linecap:square;stroke-width:1.5;"/>
    </g>
    <g id="line2d_20"/>
    <g id="text_20">
     <!-- O(n^2) -->
     <g transform="translate(91 51.158437)scale(0.1 -0.1)">
      <defs>
       <path d="M 39.40625 66.21875 
Q 28.65625 66.21875 22.328125 58.203125 
Q 16.015625 50.203125 16.015625 36.375 
Q 16.015625 22.609375 22.328125 14.59375 
Q 28.65625 6.59375 39.40625 6.59375 
Q 50.140625 6.59375 56.421875 14.59375 
Q 62.703125 22.609375 62.703125 36.375 
Q 62.703125 50.203125 56.421875 58.203125 
Q 50.140625 66.21875 39.40625 66.21875 
z
M 39.40625 74.21875 
Q 54.734375 74.21875 63.90625 63.9375 
Q 73.09375 53.65625 73.09375 36.375 
Q 73.09375 19.140625 63.90625 8.859375 
Q 54.734375 -1.421875 39.40625 -1.421875 
Q 24.03125 -1.421875 14.8125 8.828125 
Q 5.609375 19.09375 5.609375 36.375 
Q 5.609375 53.65625 14.8125 63.9375 
Q 24.03125 74.21875 39.40625 74.21875 
z
" id="DejaVuSans-79"/>
       <path d="M 46.6875 72.90625 
L 73.1875 45.703125 
L 63.375 45.703125 
L 41.890625 64.984375 
L 20.40625 45.703125 
L 10.59375 45.703125 
L 37.109375 72.90625 
z
" id="DejaVuSans-94"/>
      </defs>
      <use xlink:href="#DejaVuSans-79"/>
      <use x="78.710938" xlink:href="#DejaVuSans-40"/>
      <use x="117.724609" xlink:href="#DejaVuSans-110"/>
      <use x="181.103516" xlink:href="#DejaVuSans-94"/>
      <use x="264.892578" xlink:href="#DejaVuSans-50"/>
      <use x="328.515625" xlink:href="#DejaVuSans-41"/>
     </g>
    </g>
    <g id="PathCollection_2">
     <g>
      <use style="fill:#1f77b4;stroke:#ffffff;stroke-width:0.48;" x="73" xlink:href="#m7a3b427811" y="63.211562"/>
     </g>
    </g>
    <g id="text_21">
     <!-- BT -->
     <g transform="translate(91 65.836562)scale(0.1 -0.1)">
      <defs>
       <path d="M 19.671875 34.8125 
L 19.671875 8.109375 
L 35.5 8.109375 
Q 43.453125 8.109375 47.28125 11.40625 
Q 51.125 14.703125 51.125 21.484375 
Q 51.125 28.328125 47.28125 31.5625 
Q 43.453125 34.8125 35.5 34.8125 
z
M 19.671875 64.796875 
L 19.671875 42.828125 
L 34.28125 42.828125 
Q 41.5 42.828125 45.03125 45.53125 
Q 48.578125 48.25 48.578125 53.8125 
Q 48.578125 59.328125 45.03125 62.0625 
Q 41.5 64.796875 34.28125 64.796875 
z
M 9.8125 72.90625 
L 35.015625 72.90625 
Q 46.296875 72.90625 52.390625 68.21875 
Q 58.5 63.53125 58.5 54.890625 
Q 58.5 48.1875 55.375 44.234375 
Q 52.25 40.28125 46.1875 39.3125 
Q 53.46875 37.75 57.5 32.78125 
Q 61.53125 27.828125 61.53125 20.40625 
Q 61.53125 10.640625 54.890625 5.3125 
Q 48.25 0 35.984375 0 
L 9.8125 0 
z
" id="DejaVuSans-66"/>
       <path d="M -0.296875 72.90625 
L 61.375 72.90625 
L 61.375 64.59375 
L 35.5 64.59375 
L 35.5 0 
L 25.59375 0 
L 25.59375 64.59375 
L -0.296875 64.59375 
z
" id="DejaVuSans-84"/>
      </defs>
      <use xlink:href="#DejaVuSans-66"/>
      <use x="68.603516" xlink:href="#DejaVuSans-84"/>
     </g>
    </g>
   </g>
  </g>
 </g>
 <defs>
  <clipPath id="p54a2d16991">
   <rect height="217.44" width="334.8" x="54" y="34.56"/>
  </clipPath>
 </defs>
</svg>
