<?xml version="1.0" encoding="utf-8" standalone="no"?>
<!DOCTYPE svg PUBLIC "-//W3C//DTD SVG 1.1//EN"
  "http://www.w3.org/Graphics/SVG/1.1/DTD/svg11.dtd">
<!-- Created with matplotlib (https://matplotlib.org/) -->
<svg height="360pt" version="1.1" viewBox="0 0 360 360" width="360pt" xmlns="http://www.w3.org/2000/svg" xmlns:xlink="http://www.w3.org/1999/xlink">
 <metadata>
  <rdf:RDF xmlns:cc="http://creativecommons.org/ns#" xmlns:dc="http://purl.org/dc/elements/1.1/" xmlns:rdf="http://www.w3.org/1999/02/22-rdf-syntax-ns#">
   <cc:Work>
    <dc:type rdf:resource="http://purl.org/dc/dcmitype/StillImage"/>
    <dc:date>2021-04-27T19:14:49.766598</dc:date>
    <dc:format>image/svg+xml</dc:format>
    <dc:creator>
     <cc:Agent>
      <dc:title>Matplotlib v3.3.3, https://matplotlib.org/</dc:title>
     </cc:Agent>
    </dc:creator>
   </cc:Work>
  </rdf:RDF>
 </metadata>
 <defs>
  <style type="text/css">*{stroke-linecap:butt;stroke-linejoin:round;}</style>
 </defs>
 <g id="figure_1">
  <g id="patch_1">
   <path d="M 0 360 
L 360 360 
L 360 0 
L 0 0 
z
" style="fill:none;"/>
  </g>
  <g id="axes_1">
   <g id="patch_2">
    <path d="M 24.175 332.2 
L 349.2 332.2 
L 349.2 21.8 
L 24.175 21.8 
z
" style="fill:#ffffff;"/>
   </g>
   <g id="PathCollection_1">
    <defs>
     <path d="M 0 3 
C 0.795609 3 1.55874 2.683901 2.12132 2.12132 
C 2.683901 1.55874 3 0.795609 3 0 
C 3 -0.795609 2.683901 -1.55874 2.12132 -2.12132 
C 1.55874 -2.683901 0.795609 -3 0 -3 
C -0.795609 -3 -1.55874 -2.683901 -2.12132 -2.12132 
C -2.683901 -1.55874 -3 -0.795609 -3 0 
C -3 0.795609 -2.683901 1.55874 -2.12132 2.12132 
C -1.55874 2.683901 -0.795609 3 0 3 
z
" id="m3db585800b" style="stroke:#1f77b4;stroke-opacity:0.8;"/>
    </defs>
    <g clip-path="url(#p6c7d763c28)">
     <use style="fill:#1f77b4;fill-opacity:0.8;stroke:#1f77b4;stroke-opacity:0.8;" x="24.175" xlink:href="#m3db585800b" y="314.818465"/>
     <use style="fill:#1f77b4;fill-opacity:0.8;stroke:#1f77b4;stroke-opacity:0.8;" x="24.430689" xlink:href="#m3db585800b" y="314.818465"/>
     <use style="fill:#1f77b4;fill-opacity:0.8;stroke:#1f77b4;stroke-opacity:0.8;" x="24.443506" xlink:href="#m3db585800b" y="314.818465"/>
     <use style="fill:#1f77b4;fill-opacity:0.8;stroke:#1f77b4;stroke-opacity:0.8;" x="24.676917" xlink:href="#m3db585800b" y="314.818465"/>
     <use style="fill:#1f77b4;fill-opacity:0.8;stroke:#1f77b4;stroke-opacity:0.8;" x="24.850618" xlink:href="#m3db585800b" y="314.818465"/>
     <use style="fill:#1f77b4;fill-opacity:0.8;stroke:#1f77b4;stroke-opacity:0.8;" x="25.069667" xlink:href="#m3db585800b" y="314.818465"/>
     <use style="fill:#1f77b4;fill-opacity:0.8;stroke:#1f77b4;stroke-opacity:0.8;" x="25.320833" xlink:href="#m3db585800b" y="314.818465"/>
     <use style="fill:#1f77b4;fill-opacity:0.8;stroke:#1f77b4;stroke-opacity:0.8;" x="25.4349" xlink:href="#m3db585800b" y="314.818465"/>
     <use style="fill:#1f77b4;fill-opacity:0.8;stroke:#1f77b4;stroke-opacity:0.8;" x="25.826142" xlink:href="#m3db585800b" y="314.818465"/>
     <use style="fill:#1f77b4;fill-opacity:0.8;stroke:#1f77b4;stroke-opacity:0.8;" x="28.707706" xlink:href="#m3db585800b" y="314.818465"/>
     <use style="fill:#1f77b4;fill-opacity:0.8;stroke:#1f77b4;stroke-opacity:0.8;" x="26.573909" xlink:href="#m3db585800b" y="314.818465"/>
     <use style="fill:#1f77b4;fill-opacity:0.8;stroke:#1f77b4;stroke-opacity:0.8;" x="26.959535" xlink:href="#m3db585800b" y="314.818465"/>
     <use style="fill:#1f77b4;fill-opacity:0.8;stroke:#1f77b4;stroke-opacity:0.8;" x="27.666478" xlink:href="#m3db585800b" y="314.818465"/>
     <use style="fill:#1f77b4;fill-opacity:0.8;stroke:#1f77b4;stroke-opacity:0.8;" x="29.014322" xlink:href="#m3db585800b" y="314.818465"/>
     <use style="fill:#1f77b4;fill-opacity:0.8;stroke:#1f77b4;stroke-opacity:0.8;" x="27.826232" xlink:href="#m3db585800b" y="314.818465"/>
     <use style="fill:#1f77b4;fill-opacity:0.8;stroke:#1f77b4;stroke-opacity:0.8;" x="29.706224" xlink:href="#m3db585800b" y="314.818465"/>
     <use style="fill:#1f77b4;fill-opacity:0.8;stroke:#1f77b4;stroke-opacity:0.8;" x="30.612615" xlink:href="#m3db585800b" y="314.818465"/>
     <use style="fill:#1f77b4;fill-opacity:0.8;stroke:#1f77b4;stroke-opacity:0.8;" x="28.944095" xlink:href="#m3db585800b" y="314.818465"/>
     <use style="fill:#1f77b4;fill-opacity:0.8;stroke:#1f77b4;stroke-opacity:0.8;" x="29.355391" xlink:href="#m3db585800b" y="314.818465"/>
     <use style="fill:#1f77b4;fill-opacity:0.8;stroke:#1f77b4;stroke-opacity:0.8;" x="29.79462" xlink:href="#m3db585800b" y="314.818465"/>
     <use style="fill:#1f77b4;fill-opacity:0.8;stroke:#1f77b4;stroke-opacity:0.8;" x="30.251943" xlink:href="#m3db585800b" y="314.818465"/>
     <use style="fill:#1f77b4;fill-opacity:0.8;stroke:#1f77b4;stroke-opacity:0.8;" x="30.766337" xlink:href="#m3db585800b" y="314.818465"/>
     <use style="fill:#1f77b4;fill-opacity:0.8;stroke:#1f77b4;stroke-opacity:0.8;" x="33.687519" xlink:href="#m3db585800b" y="314.818465"/>
     <use style="fill:#1f77b4;fill-opacity:0.8;stroke:#1f77b4;stroke-opacity:0.8;" x="34.488927" xlink:href="#m3db585800b" y="314.818465"/>
     <use style="fill:#1f77b4;fill-opacity:0.8;stroke:#1f77b4;stroke-opacity:0.8;" x="33.863143" xlink:href="#m3db585800b" y="314.818465"/>
     <use style="fill:#1f77b4;fill-opacity:0.8;stroke:#1f77b4;stroke-opacity:0.8;" x="36.933524" xlink:href="#m3db585800b" y="314.818465"/>
     <use style="fill:#1f77b4;fill-opacity:0.8;stroke:#1f77b4;stroke-opacity:0.8;" x="33.282669" xlink:href="#m3db585800b" y="314.818465"/>
     <use style="fill:#1f77b4;fill-opacity:0.8;stroke:#1f77b4;stroke-opacity:0.8;" x="33.730191" xlink:href="#m3db585800b" y="314.818465"/>
     <use style="fill:#1f77b4;fill-opacity:0.8;stroke:#1f77b4;stroke-opacity:0.8;" x="34.348059" xlink:href="#m3db585800b" y="314.818465"/>
     <use style="fill:#1f77b4;fill-opacity:0.8;stroke:#1f77b4;stroke-opacity:0.8;" x="34.715892" xlink:href="#m3db585800b" y="314.818465"/>
     <use style="fill:#1f77b4;fill-opacity:0.8;stroke:#1f77b4;stroke-opacity:0.8;" x="35.640754" xlink:href="#m3db585800b" y="314.818465"/>
     <use style="fill:#1f77b4;fill-opacity:0.8;stroke:#1f77b4;stroke-opacity:0.8;" x="36.214443" xlink:href="#m3db585800b" y="314.818465"/>
     <use style="fill:#1f77b4;fill-opacity:0.8;stroke:#1f77b4;stroke-opacity:0.8;" x="36.581146" xlink:href="#m3db585800b" y="314.818465"/>
     <use style="fill:#1f77b4;fill-opacity:0.8;stroke:#1f77b4;stroke-opacity:0.8;" x="40.72144" xlink:href="#m3db585800b" y="314.818465"/>
     <use style="fill:#1f77b4;fill-opacity:0.8;stroke:#1f77b4;stroke-opacity:0.8;" x="38.498909" xlink:href="#m3db585800b" y="314.818465"/>
     <use style="fill:#1f77b4;fill-opacity:0.8;stroke:#1f77b4;stroke-opacity:0.8;" x="38.988763" xlink:href="#m3db585800b" y="314.818465"/>
     <use style="fill:#1f77b4;fill-opacity:0.8;stroke:#1f77b4;stroke-opacity:0.8;" x="38.657532" xlink:href="#m3db585800b" y="314.818465"/>
     <use style="fill:#1f77b4;fill-opacity:0.8;stroke:#1f77b4;stroke-opacity:0.8;" x="40.110772" xlink:href="#m3db585800b" y="314.818465"/>
     <use style="fill:#1f77b4;fill-opacity:0.8;stroke:#1f77b4;stroke-opacity:0.8;" x="41.190147" xlink:href="#m3db585800b" y="314.818465"/>
     <use style="fill:#1f77b4;fill-opacity:0.8;stroke:#1f77b4;stroke-opacity:0.8;" x="41.761122" xlink:href="#m3db585800b" y="314.818465"/>
     <use style="fill:#1f77b4;fill-opacity:0.8;stroke:#1f77b4;stroke-opacity:0.8;" x="41.066619" xlink:href="#m3db585800b" y="314.818465"/>
     <use style="fill:#1f77b4;fill-opacity:0.8;stroke:#1f77b4;stroke-opacity:0.8;" x="43.272527" xlink:href="#m3db585800b" y="314.818465"/>
     <use style="fill:#1f77b4;fill-opacity:0.8;stroke:#1f77b4;stroke-opacity:0.8;" x="44.254045" xlink:href="#m3db585800b" y="314.818465"/>
     <use style="fill:#1f77b4;fill-opacity:0.8;stroke:#1f77b4;stroke-opacity:0.8;" x="43.596596" xlink:href="#m3db585800b" y="314.818465"/>
     <use style="fill:#1f77b4;fill-opacity:0.8;stroke:#1f77b4;stroke-opacity:0.8;" x="43.762758" xlink:href="#m3db585800b" y="314.818465"/>
     <use style="fill:#1f77b4;fill-opacity:0.8;stroke:#1f77b4;stroke-opacity:0.8;" x="45.205406" xlink:href="#m3db585800b" y="314.818465"/>
     <use style="fill:#1f77b4;fill-opacity:0.8;stroke:#1f77b4;stroke-opacity:0.8;" x="46.840678" xlink:href="#m3db585800b" y="314.818465"/>
     <use style="fill:#1f77b4;fill-opacity:0.8;stroke:#1f77b4;stroke-opacity:0.8;" x="47.761431" xlink:href="#m3db585800b" y="314.818465"/>
     <use style="fill:#1f77b4;fill-opacity:0.8;stroke:#1f77b4;stroke-opacity:0.8;" x="49.577189" xlink:href="#m3db585800b" y="314.818465"/>
     <use style="fill:#1f77b4;fill-opacity:0.8;stroke:#1f77b4;stroke-opacity:0.8;" x="49.484307" xlink:href="#m3db585800b" y="314.818465"/>
     <use style="fill:#1f77b4;fill-opacity:0.8;stroke:#1f77b4;stroke-opacity:0.8;" x="50.101384" xlink:href="#m3db585800b" y="314.818465"/>
     <use style="fill:#1f77b4;fill-opacity:0.8;stroke:#1f77b4;stroke-opacity:0.8;" x="49.073049" xlink:href="#m3db585800b" y="314.818465"/>
     <use style="fill:#1f77b4;fill-opacity:0.8;stroke:#1f77b4;stroke-opacity:0.8;" x="51.612412" xlink:href="#m3db585800b" y="314.818465"/>
     <use style="fill:#1f77b4;fill-opacity:0.8;stroke:#1f77b4;stroke-opacity:0.8;" x="53.076584" xlink:href="#m3db585800b" y="314.818465"/>
     <use style="fill:#1f77b4;fill-opacity:0.8;stroke:#1f77b4;stroke-opacity:0.8;" x="53.969366" xlink:href="#m3db585800b" y="314.818465"/>
     <use style="fill:#1f77b4;fill-opacity:0.8;stroke:#1f77b4;stroke-opacity:0.8;" x="55.165824" xlink:href="#m3db585800b" y="314.818465"/>
     <use style="fill:#1f77b4;fill-opacity:0.8;stroke:#1f77b4;stroke-opacity:0.8;" x="56.072554" xlink:href="#m3db585800b" y="314.818465"/>
     <use style="fill:#1f77b4;fill-opacity:0.8;stroke:#1f77b4;stroke-opacity:0.8;" x="55.043426" xlink:href="#m3db585800b" y="314.818465"/>
     <use style="fill:#1f77b4;fill-opacity:0.8;stroke:#1f77b4;stroke-opacity:0.8;" x="58.331386" xlink:href="#m3db585800b" y="314.818465"/>
     <use style="fill:#1f77b4;fill-opacity:0.8;stroke:#1f77b4;stroke-opacity:0.8;" x="59.165213" xlink:href="#m3db585800b" y="314.818465"/>
     <use style="fill:#1f77b4;fill-opacity:0.8;stroke:#1f77b4;stroke-opacity:0.8;" x="59.651674" xlink:href="#m3db585800b" y="314.818465"/>
     <use style="fill:#1f77b4;fill-opacity:0.8;stroke:#1f77b4;stroke-opacity:0.8;" x="61.556583" xlink:href="#m3db585800b" y="314.818465"/>
     <use style="fill:#1f77b4;fill-opacity:0.8;stroke:#1f77b4;stroke-opacity:0.8;" x="61.56073" xlink:href="#m3db585800b" y="314.818465"/>
     <use style="fill:#1f77b4;fill-opacity:0.8;stroke:#1f77b4;stroke-opacity:0.8;" x="64.521039" xlink:href="#m3db585800b" y="314.818465"/>
     <use style="fill:#1f77b4;fill-opacity:0.8;stroke:#1f77b4;stroke-opacity:0.8;" x="62.164688" xlink:href="#m3db585800b" y="314.818465"/>
     <use style="fill:#1f77b4;fill-opacity:0.8;stroke:#1f77b4;stroke-opacity:0.8;" x="62.036523" xlink:href="#m3db585800b" y="314.818465"/>
     <use style="fill:#1f77b4;fill-opacity:0.8;stroke:#1f77b4;stroke-opacity:0.8;" x="66.84648" xlink:href="#m3db585800b" y="314.818465"/>
     <use style="fill:#1f77b4;fill-opacity:0.8;stroke:#1f77b4;stroke-opacity:0.8;" x="66.495157" xlink:href="#m3db585800b" y="314.818465"/>
     <use style="fill:#1f77b4;fill-opacity:0.8;stroke:#1f77b4;stroke-opacity:0.8;" x="67.927967" xlink:href="#m3db585800b" y="314.818465"/>
     <use style="fill:#1f77b4;fill-opacity:0.8;stroke:#1f77b4;stroke-opacity:0.8;" x="71.692248" xlink:href="#m3db585800b" y="314.818465"/>
     <use style="fill:#1f77b4;fill-opacity:0.8;stroke:#1f77b4;stroke-opacity:0.8;" x="71.026921" xlink:href="#m3db585800b" y="314.818465"/>
     <use style="fill:#1f77b4;fill-opacity:0.8;stroke:#1f77b4;stroke-opacity:0.8;" x="141.467911" xlink:href="#m3db585800b" y="314.818465"/>
     <use style="fill:#1f77b4;fill-opacity:0.8;stroke:#1f77b4;stroke-opacity:0.8;" x="73.846928" xlink:href="#m3db585800b" y="314.818465"/>
     <use style="fill:#1f77b4;fill-opacity:0.8;stroke:#1f77b4;stroke-opacity:0.8;" x="139.34565" xlink:href="#m3db585800b" y="314.818465"/>
     <use style="fill:#1f77b4;fill-opacity:0.8;stroke:#1f77b4;stroke-opacity:0.8;" x="75.34495" xlink:href="#m3db585800b" y="314.818465"/>
     <use style="fill:#1f77b4;fill-opacity:0.8;stroke:#1f77b4;stroke-opacity:0.8;" x="75.656693" xlink:href="#m3db585800b" y="314.818465"/>
     <use style="fill:#1f77b4;fill-opacity:0.8;stroke:#1f77b4;stroke-opacity:0.8;" x="77.710726" xlink:href="#m3db585800b" y="314.818465"/>
     <use style="fill:#1f77b4;fill-opacity:0.8;stroke:#1f77b4;stroke-opacity:0.8;" x="78.062048" xlink:href="#m3db585800b" y="314.818465"/>
     <use style="fill:#1f77b4;fill-opacity:0.8;stroke:#1f77b4;stroke-opacity:0.8;" x="79.785491" xlink:href="#m3db585800b" y="314.818465"/>
     <use style="fill:#1f77b4;fill-opacity:0.8;stroke:#1f77b4;stroke-opacity:0.8;" x="81.884381" xlink:href="#m3db585800b" y="314.818465"/>
     <use style="fill:#1f77b4;fill-opacity:0.8;stroke:#1f77b4;stroke-opacity:0.8;" x="82.96436" xlink:href="#m3db585800b" y="314.818465"/>
     <use style="fill:#1f77b4;fill-opacity:0.8;stroke:#1f77b4;stroke-opacity:0.8;" x="84.600725" xlink:href="#m3db585800b" y="314.818465"/>
     <use style="fill:#1f77b4;fill-opacity:0.8;stroke:#1f77b4;stroke-opacity:0.8;" x="84.809559" xlink:href="#m3db585800b" y="314.818465"/>
     <use style="fill:#1f77b4;fill-opacity:0.8;stroke:#1f77b4;stroke-opacity:0.8;" x="87.841792" xlink:href="#m3db585800b" y="314.818465"/>
     <use style="fill:#1f77b4;fill-opacity:0.8;stroke:#1f77b4;stroke-opacity:0.8;" x="109.067423" xlink:href="#m3db585800b" y="314.818465"/>
     <use style="fill:#1f77b4;fill-opacity:0.8;stroke:#1f77b4;stroke-opacity:0.8;" x="87.853854" xlink:href="#m3db585800b" y="314.818465"/>
     <use style="fill:#1f77b4;fill-opacity:0.8;stroke:#1f77b4;stroke-opacity:0.8;" x="91.882759" xlink:href="#m3db585800b" y="314.818465"/>
     <use style="fill:#1f77b4;fill-opacity:0.8;stroke:#1f77b4;stroke-opacity:0.8;" x="92.47081" xlink:href="#m3db585800b" y="314.818465"/>
     <use style="fill:#1f77b4;fill-opacity:0.8;stroke:#1f77b4;stroke-opacity:0.8;" x="92.82251" xlink:href="#m3db585800b" y="314.818465"/>
     <use style="fill:#1f77b4;fill-opacity:0.8;stroke:#1f77b4;stroke-opacity:0.8;" x="94.187844" xlink:href="#m3db585800b" y="314.818465"/>
     <use style="fill:#1f77b4;fill-opacity:0.8;stroke:#1f77b4;stroke-opacity:0.8;" x="122.148546" xlink:href="#m3db585800b" y="314.818465"/>
     <use style="fill:#1f77b4;fill-opacity:0.8;stroke:#1f77b4;stroke-opacity:0.8;" x="96.347801" xlink:href="#m3db585800b" y="314.818465"/>
     <use style="fill:#1f77b4;fill-opacity:0.8;stroke:#1f77b4;stroke-opacity:0.8;" x="112.751413" xlink:href="#m3db585800b" y="314.818465"/>
     <use style="fill:#1f77b4;fill-opacity:0.8;stroke:#1f77b4;stroke-opacity:0.8;" x="120.888005" xlink:href="#m3db585800b" y="314.818465"/>
     <use style="fill:#1f77b4;fill-opacity:0.8;stroke:#1f77b4;stroke-opacity:0.8;" x="118.3477" xlink:href="#m3db585800b" y="314.818465"/>
     <use style="fill:#1f77b4;fill-opacity:0.8;stroke:#1f77b4;stroke-opacity:0.8;" x="206.333347" xlink:href="#m3db585800b" y="314.818465"/>
     <use style="fill:#1f77b4;fill-opacity:0.8;stroke:#1f77b4;stroke-opacity:0.8;" x="228.466311" xlink:href="#m3db585800b" y="314.818465"/>
     <use style="fill:#1f77b4;fill-opacity:0.8;stroke:#1f77b4;stroke-opacity:0.8;" x="100.636428" xlink:href="#m3db585800b" y="314.818465"/>
     <use style="fill:#1f77b4;fill-opacity:0.8;stroke:#1f77b4;stroke-opacity:0.8;" x="110.052032" xlink:href="#m3db585800b" y="314.818465"/>
     <use style="fill:#1f77b4;fill-opacity:0.8;stroke:#1f77b4;stroke-opacity:0.8;" x="125.037535" xlink:href="#m3db585800b" y="314.818465"/>
     <use style="fill:#1f77b4;fill-opacity:0.8;stroke:#1f77b4;stroke-opacity:0.8;" x="237.425798" xlink:href="#m3db585800b" y="314.818465"/>
     <use style="fill:#1f77b4;fill-opacity:0.8;stroke:#1f77b4;stroke-opacity:0.8;" x="120.374591" xlink:href="#m3db585800b" y="314.818465"/>
     <use style="fill:#1f77b4;fill-opacity:0.8;stroke:#1f77b4;stroke-opacity:0.8;" x="119.105758" xlink:href="#m3db585800b" y="314.818465"/>
     <use style="fill:#1f77b4;fill-opacity:0.8;stroke:#1f77b4;stroke-opacity:0.8;" x="115.29888" xlink:href="#m3db585800b" y="314.818465"/>
     <use style="fill:#1f77b4;fill-opacity:0.8;stroke:#1f77b4;stroke-opacity:0.8;" x="115.470395" xlink:href="#m3db585800b" y="314.818465"/>
     <use style="fill:#1f77b4;fill-opacity:0.8;stroke:#1f77b4;stroke-opacity:0.8;" x="120.801682" xlink:href="#m3db585800b" y="314.818465"/>
     <use style="fill:#1f77b4;fill-opacity:0.8;stroke:#1f77b4;stroke-opacity:0.8;" x="118.638333" xlink:href="#m3db585800b" y="314.818465"/>
     <use style="fill:#1f77b4;fill-opacity:0.8;stroke:#1f77b4;stroke-opacity:0.8;" x="151.225037" xlink:href="#m3db585800b" y="314.818465"/>
     <use style="fill:#1f77b4;fill-opacity:0.8;stroke:#1f77b4;stroke-opacity:0.8;" x="121.347137" xlink:href="#m3db585800b" y="314.818465"/>
     <use style="fill:#1f77b4;fill-opacity:0.8;stroke:#1f77b4;stroke-opacity:0.8;" x="165.426096" xlink:href="#m3db585800b" y="314.818465"/>
     <use style="fill:#1f77b4;fill-opacity:0.8;stroke:#1f77b4;stroke-opacity:0.8;" x="124.729939" xlink:href="#m3db585800b" y="314.818465"/>
     <use style="fill:#1f77b4;fill-opacity:0.8;stroke:#1f77b4;stroke-opacity:0.8;" x="127.770466" xlink:href="#m3db585800b" y="314.818465"/>
     <use style="fill:#1f77b4;fill-opacity:0.8;stroke:#1f77b4;stroke-opacity:0.8;" x="158.481814" xlink:href="#m3db585800b" y="314.818465"/>
     <use style="fill:#1f77b4;fill-opacity:0.8;stroke:#1f77b4;stroke-opacity:0.8;" x="157.337376" xlink:href="#m3db585800b" y="314.818465"/>
     <use style="fill:#1f77b4;fill-opacity:0.8;stroke:#1f77b4;stroke-opacity:0.8;" x="178.336457" xlink:href="#m3db585800b" y="314.818465"/>
     <use style="fill:#1f77b4;fill-opacity:0.8;stroke:#1f77b4;stroke-opacity:0.8;" x="136.565977" xlink:href="#m3db585800b" y="314.818465"/>
     <use style="fill:#1f77b4;fill-opacity:0.8;stroke:#1f77b4;stroke-opacity:0.8;" x="144.2555" xlink:href="#m3db585800b" y="314.818465"/>
     <use style="fill:#1f77b4;fill-opacity:0.8;stroke:#1f77b4;stroke-opacity:0.8;" x="164.167063" xlink:href="#m3db585800b" y="314.818465"/>
     <use style="fill:#1f77b4;fill-opacity:0.8;stroke:#1f77b4;stroke-opacity:0.8;" x="137.569433" xlink:href="#m3db585800b" y="314.818465"/>
     <use style="fill:#1f77b4;fill-opacity:0.8;stroke:#1f77b4;stroke-opacity:0.8;" x="139.69848" xlink:href="#m3db585800b" y="314.818465"/>
     <use style="fill:#1f77b4;fill-opacity:0.8;stroke:#1f77b4;stroke-opacity:0.8;" x="302.19511" xlink:href="#m3db585800b" y="314.818465"/>
     <use style="fill:#1f77b4;fill-opacity:0.8;stroke:#1f77b4;stroke-opacity:0.8;" x="147.145997" xlink:href="#m3db585800b" y="314.818464"/>
     <use style="fill:#1f77b4;fill-opacity:0.8;stroke:#1f77b4;stroke-opacity:0.8;" x="142.568622" xlink:href="#m3db585800b" y="314.818463"/>
     <use style="fill:#1f77b4;fill-opacity:0.8;stroke:#1f77b4;stroke-opacity:0.8;" x="318.598345" xlink:href="#m3db585800b" y="314.818461"/>
     <use style="fill:#1f77b4;fill-opacity:0.8;stroke:#1f77b4;stroke-opacity:0.8;" x="171.874303" xlink:href="#m3db585800b" y="314.818457"/>
     <use style="fill:#1f77b4;fill-opacity:0.8;stroke:#1f77b4;stroke-opacity:0.8;" x="301.636085" xlink:href="#m3db585800b" y="314.818449"/>
     <use style="fill:#1f77b4;fill-opacity:0.8;stroke:#1f77b4;stroke-opacity:0.8;" x="328.701894" xlink:href="#m3db585800b" y="314.818432"/>
     <use style="fill:#1f77b4;fill-opacity:0.8;stroke:#1f77b4;stroke-opacity:0.8;" x="328.482128" xlink:href="#m3db585800b" y="314.818399"/>
     <use style="fill:#1f77b4;fill-opacity:0.8;stroke:#1f77b4;stroke-opacity:0.8;" x="349.2" xlink:href="#m3db585800b" y="314.818332"/>
     <use style="fill:#1f77b4;fill-opacity:0.8;stroke:#1f77b4;stroke-opacity:0.8;" x="340.055051" xlink:href="#m3db585800b" y="314.818199"/>
     <use style="fill:#1f77b4;fill-opacity:0.8;stroke:#1f77b4;stroke-opacity:0.8;" x="228.405621" xlink:href="#m3db585800b" y="314.817933"/>
     <use style="fill:#1f77b4;fill-opacity:0.8;stroke:#1f77b4;stroke-opacity:0.8;" x="195.882999" xlink:href="#m3db585800b" y="314.817401"/>
     <use style="fill:#1f77b4;fill-opacity:0.8;stroke:#1f77b4;stroke-opacity:0.8;" x="176.316728" xlink:href="#m3db585800b" y="314.816337"/>
     <use style="fill:#1f77b4;fill-opacity:0.8;stroke:#1f77b4;stroke-opacity:0.8;" x="195.128711" xlink:href="#m3db585800b" y="314.814209"/>
     <use style="fill:#1f77b4;fill-opacity:0.8;stroke:#1f77b4;stroke-opacity:0.8;" x="170.461472" xlink:href="#m3db585800b" y="314.809954"/>
     <use style="fill:#1f77b4;fill-opacity:0.8;stroke:#1f77b4;stroke-opacity:0.8;" x="336.291523" xlink:href="#m3db585800b" y="314.801442"/>
     <use style="fill:#1f77b4;fill-opacity:0.8;stroke:#1f77b4;stroke-opacity:0.8;" x="182.682005" xlink:href="#m3db585800b" y="314.784419"/>
     <use style="fill:#1f77b4;fill-opacity:0.8;stroke:#1f77b4;stroke-opacity:0.8;" x="185.431521" xlink:href="#m3db585800b" y="314.750372"/>
     <use style="fill:#1f77b4;fill-opacity:0.8;stroke:#1f77b4;stroke-opacity:0.8;" x="231.652719" xlink:href="#m3db585800b" y="314.682279"/>
     <use style="fill:#1f77b4;fill-opacity:0.8;stroke:#1f77b4;stroke-opacity:0.8;" x="188.743078" xlink:href="#m3db585800b" y="314.546093"/>
     <use style="fill:#1f77b4;fill-opacity:0.8;stroke:#1f77b4;stroke-opacity:0.8;" x="216.667969" xlink:href="#m3db585800b" y="314.27372"/>
     <use style="fill:#1f77b4;fill-opacity:0.8;stroke:#1f77b4;stroke-opacity:0.8;" x="189.254984" xlink:href="#m3db585800b" y="313.728976"/>
     <use style="fill:#1f77b4;fill-opacity:0.8;stroke:#1f77b4;stroke-opacity:0.8;" x="197.318447" xlink:href="#m3db585800b" y="312.639486"/>
     <use style="fill:#1f77b4;fill-opacity:0.8;stroke:#1f77b4;stroke-opacity:0.8;" x="235.263956" xlink:href="#m3db585800b" y="310.460506"/>
     <use style="fill:#1f77b4;fill-opacity:0.8;stroke:#1f77b4;stroke-opacity:0.8;" x="200.976427" xlink:href="#m3db585800b" y="306.102547"/>
     <use style="fill:#1f77b4;fill-opacity:0.8;stroke:#1f77b4;stroke-opacity:0.8;" x="261.150647" xlink:href="#m3db585800b" y="297.386629"/>
     <use style="fill:#1f77b4;fill-opacity:0.8;stroke:#1f77b4;stroke-opacity:0.8;" x="200.486384" xlink:href="#m3db585800b" y="279.954793"/>
     <use style="fill:#1f77b4;fill-opacity:0.8;stroke:#1f77b4;stroke-opacity:0.8;" x="199.775823" xlink:href="#m3db585800b" y="245.091122"/>
     <use style="fill:#1f77b4;fill-opacity:0.8;stroke:#1f77b4;stroke-opacity:0.8;" x="213.213169" xlink:href="#m3db585800b" y="175.363778"/>
     <use style="fill:#1f77b4;fill-opacity:0.8;stroke:#1f77b4;stroke-opacity:0.8;" x="198.73354" xlink:href="#m3db585800b" y="35.909091"/>
    </g>
   </g>
   <g id="PolyCollection_1">
    <path clip-path="url(#p6c7d763c28)" d="M 24.175 314.844414 
L 24.175 318.090909 
L 27.458081 317.64885 
L 30.741162 317.205677 
L 34.024242 316.796072 
L 37.307323 316.322227 
L 40.590404 315.962057 
L 43.873485 315.569014 
L 47.156566 315.288595 
L 50.439646 315.035032 
L 53.722727 314.837742 
L 57.005808 314.771908 
L 60.288889 314.70129 
L 63.57197 314.669601 
L 66.855051 314.635156 
L 70.138131 314.609054 
L 73.421212 314.566521 
L 76.704293 314.537742 
L 79.987374 314.500593 
L 83.270455 314.47478 
L 86.553535 314.44524 
L 89.836616 314.407679 
L 93.119697 314.370023 
L 96.402778 314.332368 
L 99.685859 314.294712 
L 102.968939 314.257056 
L 106.25202 314.228498 
L 109.535101 314.201029 
L 112.818182 314.17356 
L 116.101263 314.146092 
L 119.384343 314.118623 
L 122.667424 314.091154 
L 125.950505 314.061068 
L 129.233586 314.028568 
L 132.516667 313.996067 
L 135.799747 313.963438 
L 139.082828 313.930795 
L 142.365909 313.898151 
L 145.64899 313.865508 
L 148.932071 313.832865 
L 152.215152 313.800221 
L 155.498232 313.767578 
L 158.781313 313.734934 
L 162.064394 313.702291 
L 165.347475 313.669647 
L 168.630556 313.637004 
L 171.913636 313.60436 
L 175.196717 313.571717 
L 178.479798 313.539073 
L 181.762879 313.50643 
L 185.04596 313.473786 
L 188.32904 313.441143 
L 191.612121 313.4085 
L 194.895202 313.375856 
L 198.178283 313.343213 
L 201.461364 313.310569 
L 204.744444 313.277926 
L 208.027525 313.245282 
L 211.310606 313.212639 
L 214.593687 313.179995 
L 217.876768 313.147352 
L 221.159848 313.114708 
L 224.442929 313.082065 
L 227.72601 313.049421 
L 231.009091 313.016778 
L 234.292172 312.984135 
L 237.575253 312.951491 
L 240.858333 312.918848 
L 244.141414 312.886186 
L 247.424495 312.853152 
L 250.707576 312.820607 
L 253.990657 312.788336 
L 257.273737 312.755743 
L 260.556818 312.723149 
L 263.839899 312.693161 
L 267.12298 312.663982 
L 270.406061 312.634338 
L 273.689141 312.60334 
L 276.972222 312.572343 
L 280.255303 312.541345 
L 283.538384 312.510347 
L 286.821465 312.47935 
L 290.104545 312.448352 
L 293.387626 312.417355 
L 296.670707 312.386357 
L 299.953788 312.355359 
L 303.236869 312.324362 
L 306.519949 312.293364 
L 309.80303 312.262366 
L 313.086111 312.231369 
L 316.369192 312.200371 
L 319.652273 312.169374 
L 322.935354 312.138376 
L 326.218434 312.107378 
L 329.501515 312.076381 
L 332.784596 312.045383 
L 336.067677 312.014386 
L 339.350758 311.983388 
L 342.633838 311.95239 
L 345.916919 311.921393 
L 349.2 311.890395 
L 349.2 272.385493 
L 349.2 272.385493 
L 345.916919 272.847519 
L 342.633838 273.309545 
L 339.350758 273.771571 
L 336.067677 274.233596 
L 332.784596 274.695622 
L 329.501515 275.157648 
L 326.218434 275.619674 
L 322.935354 276.081699 
L 319.652273 276.543725 
L 316.369192 277.005751 
L 313.086111 277.467777 
L 309.80303 277.929803 
L 306.519949 278.391828 
L 303.236869 278.853854 
L 299.953788 279.31588 
L 296.670707 279.777906 
L 293.387626 280.240336 
L 290.104545 280.702871 
L 286.821465 281.165407 
L 283.538384 281.627942 
L 280.255303 282.090478 
L 276.972222 282.553013 
L 273.689141 283.015549 
L 270.406061 283.478084 
L 267.12298 283.94062 
L 263.839899 284.403155 
L 260.556818 284.865691 
L 257.273737 285.328226 
L 253.990657 285.790762 
L 250.707576 286.253297 
L 247.424495 286.715833 
L 244.141414 287.178368 
L 240.858333 287.640904 
L 237.575253 288.103439 
L 234.292172 288.565975 
L 231.009091 289.02851 
L 227.72601 289.491046 
L 224.442929 289.953581 
L 221.159848 290.416117 
L 217.876768 290.878653 
L 214.593687 291.341188 
L 211.310606 291.803724 
L 208.027525 292.266259 
L 204.744444 292.728795 
L 201.461364 293.19133 
L 198.178283 293.653866 
L 194.895202 294.116401 
L 191.612121 294.578937 
L 188.32904 295.041472 
L 185.04596 295.504008 
L 181.762879 295.966543 
L 178.479798 296.429079 
L 175.196717 296.891614 
L 171.913636 297.35415 
L 168.630556 297.816685 
L 165.347475 298.280079 
L 162.064394 298.74352 
L 158.781313 299.206961 
L 155.498232 299.670402 
L 152.215152 300.133843 
L 148.932071 300.597284 
L 145.64899 301.060725 
L 142.365909 301.524166 
L 139.082828 301.987607 
L 135.799747 302.366433 
L 132.516667 302.735126 
L 129.233586 303.216131 
L 125.950505 303.704491 
L 122.667424 304.110121 
L 119.384343 304.518784 
L 116.101263 304.927573 
L 112.818182 305.330812 
L 109.535101 305.792055 
L 106.25202 306.281612 
L 102.968939 306.77387 
L 99.685859 307.20214 
L 96.402778 307.559563 
L 93.119697 307.959785 
L 89.836616 308.473752 
L 86.553535 308.888204 
L 83.270455 309.358198 
L 79.987374 309.777657 
L 76.704293 310.182084 
L 73.421212 310.596472 
L 70.138131 310.984222 
L 66.855051 311.434598 
L 63.57197 311.780282 
L 60.288889 312.126491 
L 57.005808 312.465084 
L 53.722727 312.772544 
L 50.439646 313.054841 
L 47.156566 313.329539 
L 43.873485 313.63035 
L 40.590404 313.887299 
L 37.307323 314.125152 
L 34.024242 314.337826 
L 30.741162 314.547728 
L 27.458081 314.714361 
L 24.175 314.844414 
z
" style="fill:#1f77b4;fill-opacity:0.15;"/>
   </g>
   <g id="matplotlib.axis_1">
    <g id="xtick_1">
     <g id="line2d_1">
      <defs>
       <path d="M 0 0 
L 0 3.5 
" id="mce5c3c54a6" style="stroke:#000000;stroke-width:0.8;"/>
      </defs>
      <g>
       <use style="stroke:#000000;stroke-width:0.8;" x="61.703294" xlink:href="#mce5c3c54a6" y="332.2"/>
      </g>
     </g>
     <g id="text_1">
      <!-- 1 -->
      <g transform="translate(58.522044 346.798438)scale(0.1 -0.1)">
       <defs>
        <path d="M 12.40625 8.296875 
L 28.515625 8.296875 
L 28.515625 63.921875 
L 10.984375 60.40625 
L 10.984375 69.390625 
L 28.421875 72.90625 
L 38.28125 72.90625 
L 38.28125 8.296875 
L 54.390625 8.296875 
L 54.390625 0 
L 12.40625 0 
z
" id="DejaVuSans-49"/>
       </defs>
       <use xlink:href="#DejaVuSans-49"/>
      </g>
     </g>
    </g>
    <g id="xtick_2">
     <g id="line2d_2">
      <g>
       <use style="stroke:#000000;stroke-width:0.8;" x="99.398882" xlink:href="#mce5c3c54a6" y="332.2"/>
      </g>
     </g>
     <g id="text_2">
      <!-- 2 -->
      <g transform="translate(96.217632 346.798438)scale(0.1 -0.1)">
       <defs>
        <path d="M 19.1875 8.296875 
L 53.609375 8.296875 
L 53.609375 0 
L 7.328125 0 
L 7.328125 8.296875 
Q 12.9375 14.109375 22.625 23.890625 
Q 32.328125 33.6875 34.8125 36.53125 
Q 39.546875 41.84375 41.421875 45.53125 
Q 43.3125 49.21875 43.3125 52.78125 
Q 43.3125 58.59375 39.234375 62.25 
Q 35.15625 65.921875 28.609375 65.921875 
Q 23.96875 65.921875 18.8125 64.3125 
Q 13.671875 62.703125 7.8125 59.421875 
L 7.8125 69.390625 
Q 13.765625 71.78125 18.9375 73 
Q 24.125 74.21875 28.421875 74.21875 
Q 39.75 74.21875 46.484375 68.546875 
Q 53.21875 62.890625 53.21875 53.421875 
Q 53.21875 48.921875 51.53125 44.890625 
Q 49.859375 40.875 45.40625 35.40625 
Q 44.1875 33.984375 37.640625 27.21875 
Q 31.109375 20.453125 19.1875 8.296875 
z
" id="DejaVuSans-50"/>
       </defs>
       <use xlink:href="#DejaVuSans-50"/>
      </g>
     </g>
    </g>
    <g id="xtick_3">
     <g id="line2d_3">
      <g>
       <use style="stroke:#000000;stroke-width:0.8;" x="137.094469" xlink:href="#mce5c3c54a6" y="332.2"/>
      </g>
     </g>
     <g id="text_3">
      <!-- 3 -->
      <g transform="translate(133.913219 346.798438)scale(0.1 -0.1)">
       <defs>
        <path d="M 40.578125 39.3125 
Q 47.65625 37.796875 51.625 33 
Q 55.609375 28.21875 55.609375 21.1875 
Q 55.609375 10.40625 48.1875 4.484375 
Q 40.765625 -1.421875 27.09375 -1.421875 
Q 22.515625 -1.421875 17.65625 -0.515625 
Q 12.796875 0.390625 7.625 2.203125 
L 7.625 11.71875 
Q 11.71875 9.328125 16.59375 8.109375 
Q 21.484375 6.890625 26.8125 6.890625 
Q 36.078125 6.890625 40.9375 10.546875 
Q 45.796875 14.203125 45.796875 21.1875 
Q 45.796875 27.640625 41.28125 31.265625 
Q 36.765625 34.90625 28.71875 34.90625 
L 20.21875 34.90625 
L 20.21875 43.015625 
L 29.109375 43.015625 
Q 36.375 43.015625 40.234375 45.921875 
Q 44.09375 48.828125 44.09375 54.296875 
Q 44.09375 59.90625 40.109375 62.90625 
Q 36.140625 65.921875 28.71875 65.921875 
Q 24.65625 65.921875 20.015625 65.03125 
Q 15.375 64.15625 9.8125 62.3125 
L 9.8125 71.09375 
Q 15.4375 72.65625 20.34375 73.4375 
Q 25.25 74.21875 29.59375 74.21875 
Q 40.828125 74.21875 47.359375 69.109375 
Q 53.90625 64.015625 53.90625 55.328125 
Q 53.90625 49.265625 50.4375 45.09375 
Q 46.96875 40.921875 40.578125 39.3125 
z
" id="DejaVuSans-51"/>
       </defs>
       <use xlink:href="#DejaVuSans-51"/>
      </g>
     </g>
    </g>
    <g id="xtick_4">
     <g id="line2d_4">
      <g>
       <use style="stroke:#000000;stroke-width:0.8;" x="174.790056" xlink:href="#mce5c3c54a6" y="332.2"/>
      </g>
     </g>
     <g id="text_4">
      <!-- 4 -->
      <g transform="translate(171.608806 346.798438)scale(0.1 -0.1)">
       <defs>
        <path d="M 37.796875 64.3125 
L 12.890625 25.390625 
L 37.796875 25.390625 
z
M 35.203125 72.90625 
L 47.609375 72.90625 
L 47.609375 25.390625 
L 58.015625 25.390625 
L 58.015625 17.1875 
L 47.609375 17.1875 
L 47.609375 0 
L 37.796875 0 
L 37.796875 17.1875 
L 4.890625 17.1875 
L 4.890625 26.703125 
z
" id="DejaVuSans-52"/>
       </defs>
       <use xlink:href="#DejaVuSans-52"/>
      </g>
     </g>
    </g>
    <g id="xtick_5">
     <g id="line2d_5">
      <g>
       <use style="stroke:#000000;stroke-width:0.8;" x="212.485644" xlink:href="#mce5c3c54a6" y="332.2"/>
      </g>
     </g>
     <g id="text_5">
      <!-- 5 -->
      <g transform="translate(209.304394 346.798438)scale(0.1 -0.1)">
       <defs>
        <path d="M 10.796875 72.90625 
L 49.515625 72.90625 
L 49.515625 64.59375 
L 19.828125 64.59375 
L 19.828125 46.734375 
Q 21.96875 47.46875 24.109375 47.828125 
Q 26.265625 48.1875 28.421875 48.1875 
Q 40.625 48.1875 47.75 41.5 
Q 54.890625 34.8125 54.890625 23.390625 
Q 54.890625 11.625 47.5625 5.09375 
Q 40.234375 -1.421875 26.90625 -1.421875 
Q 22.3125 -1.421875 17.546875 -0.640625 
Q 12.796875 0.140625 7.71875 1.703125 
L 7.71875 11.625 
Q 12.109375 9.234375 16.796875 8.0625 
Q 21.484375 6.890625 26.703125 6.890625 
Q 35.15625 6.890625 40.078125 11.328125 
Q 45.015625 15.765625 45.015625 23.390625 
Q 45.015625 31 40.078125 35.4375 
Q 35.15625 39.890625 26.703125 39.890625 
Q 22.75 39.890625 18.8125 39.015625 
Q 14.890625 38.140625 10.796875 36.28125 
z
" id="DejaVuSans-53"/>
       </defs>
       <use xlink:href="#DejaVuSans-53"/>
      </g>
     </g>
    </g>
    <g id="xtick_6">
     <g id="line2d_6">
      <g>
       <use style="stroke:#000000;stroke-width:0.8;" x="250.181231" xlink:href="#mce5c3c54a6" y="332.2"/>
      </g>
     </g>
     <g id="text_6">
      <!-- 6 -->
      <g transform="translate(246.999981 346.798438)scale(0.1 -0.1)">
       <defs>
        <path d="M 33.015625 40.375 
Q 26.375 40.375 22.484375 35.828125 
Q 18.609375 31.296875 18.609375 23.390625 
Q 18.609375 15.53125 22.484375 10.953125 
Q 26.375 6.390625 33.015625 6.390625 
Q 39.65625 6.390625 43.53125 10.953125 
Q 47.40625 15.53125 47.40625 23.390625 
Q 47.40625 31.296875 43.53125 35.828125 
Q 39.65625 40.375 33.015625 40.375 
z
M 52.59375 71.296875 
L 52.59375 62.3125 
Q 48.875 64.0625 45.09375 64.984375 
Q 41.3125 65.921875 37.59375 65.921875 
Q 27.828125 65.921875 22.671875 59.328125 
Q 17.53125 52.734375 16.796875 39.40625 
Q 19.671875 43.65625 24.015625 45.921875 
Q 28.375 48.1875 33.59375 48.1875 
Q 44.578125 48.1875 50.953125 41.515625 
Q 57.328125 34.859375 57.328125 23.390625 
Q 57.328125 12.15625 50.6875 5.359375 
Q 44.046875 -1.421875 33.015625 -1.421875 
Q 20.359375 -1.421875 13.671875 8.265625 
Q 6.984375 17.96875 6.984375 36.375 
Q 6.984375 53.65625 15.1875 63.9375 
Q 23.390625 74.21875 37.203125 74.21875 
Q 40.921875 74.21875 44.703125 73.484375 
Q 48.484375 72.75 52.59375 71.296875 
z
" id="DejaVuSans-54"/>
       </defs>
       <use xlink:href="#DejaVuSans-54"/>
      </g>
     </g>
    </g>
    <g id="xtick_7">
     <g id="line2d_7">
      <g>
       <use style="stroke:#000000;stroke-width:0.8;" x="287.876818" xlink:href="#mce5c3c54a6" y="332.2"/>
      </g>
     </g>
     <g id="text_7">
      <!-- 7 -->
      <g transform="translate(284.695568 346.798438)scale(0.1 -0.1)">
       <defs>
        <path d="M 8.203125 72.90625 
L 55.078125 72.90625 
L 55.078125 68.703125 
L 28.609375 0 
L 18.3125 0 
L 43.21875 64.59375 
L 8.203125 64.59375 
z
" id="DejaVuSans-55"/>
       </defs>
       <use xlink:href="#DejaVuSans-55"/>
      </g>
     </g>
    </g>
    <g id="xtick_8">
     <g id="line2d_8">
      <g>
       <use style="stroke:#000000;stroke-width:0.8;" x="325.572406" xlink:href="#mce5c3c54a6" y="332.2"/>
      </g>
     </g>
     <g id="text_8">
      <!-- 8 -->
      <g transform="translate(322.391156 346.798438)scale(0.1 -0.1)">
       <defs>
        <path d="M 31.78125 34.625 
Q 24.75 34.625 20.71875 30.859375 
Q 16.703125 27.09375 16.703125 20.515625 
Q 16.703125 13.921875 20.71875 10.15625 
Q 24.75 6.390625 31.78125 6.390625 
Q 38.8125 6.390625 42.859375 10.171875 
Q 46.921875 13.96875 46.921875 20.515625 
Q 46.921875 27.09375 42.890625 30.859375 
Q 38.875 34.625 31.78125 34.625 
z
M 21.921875 38.8125 
Q 15.578125 40.375 12.03125 44.71875 
Q 8.5 49.078125 8.5 55.328125 
Q 8.5 64.0625 14.71875 69.140625 
Q 20.953125 74.21875 31.78125 74.21875 
Q 42.671875 74.21875 48.875 69.140625 
Q 55.078125 64.0625 55.078125 55.328125 
Q 55.078125 49.078125 51.53125 44.71875 
Q 48 40.375 41.703125 38.8125 
Q 48.828125 37.15625 52.796875 32.3125 
Q 56.78125 27.484375 56.78125 20.515625 
Q 56.78125 9.90625 50.3125 4.234375 
Q 43.84375 -1.421875 31.78125 -1.421875 
Q 19.734375 -1.421875 13.25 4.234375 
Q 6.78125 9.90625 6.78125 20.515625 
Q 6.78125 27.484375 10.78125 32.3125 
Q 14.796875 37.15625 21.921875 38.8125 
z
M 18.3125 54.390625 
Q 18.3125 48.734375 21.84375 45.5625 
Q 25.390625 42.390625 31.78125 42.390625 
Q 38.140625 42.390625 41.71875 45.5625 
Q 45.3125 48.734375 45.3125 54.390625 
Q 45.3125 60.0625 41.71875 63.234375 
Q 38.140625 66.40625 31.78125 66.40625 
Q 25.390625 66.40625 21.84375 63.234375 
Q 18.3125 60.0625 18.3125 54.390625 
z
" id="DejaVuSans-56"/>
       </defs>
       <use xlink:href="#DejaVuSans-56"/>
      </g>
     </g>
    </g>
    <g id="text_9">
     <!-- tiempo -->
     <g transform="translate(169.157813 360.476562)scale(0.1 -0.1)">
      <defs>
       <path d="M 18.3125 70.21875 
L 18.3125 54.6875 
L 36.8125 54.6875 
L 36.8125 47.703125 
L 18.3125 47.703125 
L 18.3125 18.015625 
Q 18.3125 11.328125 20.140625 9.421875 
Q 21.96875 7.515625 27.59375 7.515625 
L 36.8125 7.515625 
L 36.8125 0 
L 27.59375 0 
Q 17.1875 0 13.234375 3.875 
Q 9.28125 7.765625 9.28125 18.015625 
L 9.28125 47.703125 
L 2.6875 47.703125 
L 2.6875 54.6875 
L 9.28125 54.6875 
L 9.28125 70.21875 
z
" id="DejaVuSans-116"/>
       <path d="M 9.421875 54.6875 
L 18.40625 54.6875 
L 18.40625 0 
L 9.421875 0 
z
M 9.421875 75.984375 
L 18.40625 75.984375 
L 18.40625 64.59375 
L 9.421875 64.59375 
z
" id="DejaVuSans-105"/>
       <path d="M 56.203125 29.59375 
L 56.203125 25.203125 
L 14.890625 25.203125 
Q 15.484375 15.921875 20.484375 11.0625 
Q 25.484375 6.203125 34.421875 6.203125 
Q 39.59375 6.203125 44.453125 7.46875 
Q 49.3125 8.734375 54.109375 11.28125 
L 54.109375 2.78125 
Q 49.265625 0.734375 44.1875 -0.34375 
Q 39.109375 -1.421875 33.890625 -1.421875 
Q 20.796875 -1.421875 13.15625 6.1875 
Q 5.515625 13.8125 5.515625 26.8125 
Q 5.515625 40.234375 12.765625 48.109375 
Q 20.015625 56 32.328125 56 
Q 43.359375 56 49.78125 48.890625 
Q 56.203125 41.796875 56.203125 29.59375 
z
M 47.21875 32.234375 
Q 47.125 39.59375 43.09375 43.984375 
Q 39.0625 48.390625 32.421875 48.390625 
Q 24.90625 48.390625 20.390625 44.140625 
Q 15.875 39.890625 15.1875 32.171875 
z
" id="DejaVuSans-101"/>
       <path d="M 52 44.1875 
Q 55.375 50.25 60.0625 53.125 
Q 64.75 56 71.09375 56 
Q 79.640625 56 84.28125 50.015625 
Q 88.921875 44.046875 88.921875 33.015625 
L 88.921875 0 
L 79.890625 0 
L 79.890625 32.71875 
Q 79.890625 40.578125 77.09375 44.375 
Q 74.3125 48.1875 68.609375 48.1875 
Q 61.625 48.1875 57.5625 43.546875 
Q 53.515625 38.921875 53.515625 30.90625 
L 53.515625 0 
L 44.484375 0 
L 44.484375 32.71875 
Q 44.484375 40.625 41.703125 44.40625 
Q 38.921875 48.1875 33.109375 48.1875 
Q 26.21875 48.1875 22.15625 43.53125 
Q 18.109375 38.875 18.109375 30.90625 
L 18.109375 0 
L 9.078125 0 
L 9.078125 54.6875 
L 18.109375 54.6875 
L 18.109375 46.1875 
Q 21.1875 51.21875 25.484375 53.609375 
Q 29.78125 56 35.6875 56 
Q 41.65625 56 45.828125 52.96875 
Q 50 49.953125 52 44.1875 
z
" id="DejaVuSans-109"/>
       <path d="M 18.109375 8.203125 
L 18.109375 -20.796875 
L 9.078125 -20.796875 
L 9.078125 54.6875 
L 18.109375 54.6875 
L 18.109375 46.390625 
Q 20.953125 51.265625 25.265625 53.625 
Q 29.59375 56 35.59375 56 
Q 45.5625 56 51.78125 48.09375 
Q 58.015625 40.1875 58.015625 27.296875 
Q 58.015625 14.40625 51.78125 6.484375 
Q 45.5625 -1.421875 35.59375 -1.421875 
Q 29.59375 -1.421875 25.265625 0.953125 
Q 20.953125 3.328125 18.109375 8.203125 
z
M 48.6875 27.296875 
Q 48.6875 37.203125 44.609375 42.84375 
Q 40.53125 48.484375 33.40625 48.484375 
Q 26.265625 48.484375 22.1875 42.84375 
Q 18.109375 37.203125 18.109375 27.296875 
Q 18.109375 17.390625 22.1875 11.75 
Q 26.265625 6.109375 33.40625 6.109375 
Q 40.53125 6.109375 44.609375 11.75 
Q 48.6875 17.390625 48.6875 27.296875 
z
" id="DejaVuSans-112"/>
       <path d="M 30.609375 48.390625 
Q 23.390625 48.390625 19.1875 42.75 
Q 14.984375 37.109375 14.984375 27.296875 
Q 14.984375 17.484375 19.15625 11.84375 
Q 23.34375 6.203125 30.609375 6.203125 
Q 37.796875 6.203125 41.984375 11.859375 
Q 46.1875 17.53125 46.1875 27.296875 
Q 46.1875 37.015625 41.984375 42.703125 
Q 37.796875 48.390625 30.609375 48.390625 
z
M 30.609375 56 
Q 42.328125 56 49.015625 48.375 
Q 55.71875 40.765625 55.71875 27.296875 
Q 55.71875 13.875 49.015625 6.21875 
Q 42.328125 -1.421875 30.609375 -1.421875 
Q 18.84375 -1.421875 12.171875 6.21875 
Q 5.515625 13.875 5.515625 27.296875 
Q 5.515625 40.765625 12.171875 48.375 
Q 18.84375 56 30.609375 56 
z
" id="DejaVuSans-111"/>
      </defs>
      <use xlink:href="#DejaVuSans-116"/>
      <use x="39.208984" xlink:href="#DejaVuSans-105"/>
      <use x="66.992188" xlink:href="#DejaVuSans-101"/>
      <use x="128.515625" xlink:href="#DejaVuSans-109"/>
      <use x="225.927734" xlink:href="#DejaVuSans-112"/>
      <use x="289.404297" xlink:href="#DejaVuSans-111"/>
     </g>
    </g>
   </g>
   <g id="matplotlib.axis_2">
    <g id="ytick_1">
     <g id="line2d_9">
      <defs>
       <path d="M 0 0 
L -3.5 0 
" id="mbb126a3e57" style="stroke:#000000;stroke-width:0.8;"/>
      </defs>
      <g>
       <use style="stroke:#000000;stroke-width:0.8;" x="24.175" xlink:href="#mbb126a3e57" y="314.818465"/>
      </g>
     </g>
     <g id="text_10">
      <!-- 0 -->
      <g transform="translate(10.8125 318.617684)scale(0.1 -0.1)">
       <defs>
        <path d="M 31.78125 66.40625 
Q 24.171875 66.40625 20.328125 58.90625 
Q 16.5 51.421875 16.5 36.375 
Q 16.5 21.390625 20.328125 13.890625 
Q 24.171875 6.390625 31.78125 6.390625 
Q 39.453125 6.390625 43.28125 13.890625 
Q 47.125 21.390625 47.125 36.375 
Q 47.125 51.421875 43.28125 58.90625 
Q 39.453125 66.40625 31.78125 66.40625 
z
M 31.78125 74.21875 
Q 44.046875 74.21875 50.515625 64.515625 
Q 56.984375 54.828125 56.984375 36.375 
Q 56.984375 17.96875 50.515625 8.265625 
Q 44.046875 -1.421875 31.78125 -1.421875 
Q 19.53125 -1.421875 13.0625 8.265625 
Q 6.59375 17.96875 6.59375 36.375 
Q 6.59375 54.828125 13.0625 64.515625 
Q 19.53125 74.21875 31.78125 74.21875 
z
" id="DejaVuSans-48"/>
       </defs>
       <use xlink:href="#DejaVuSans-48"/>
      </g>
     </g>
    </g>
    <g id="ytick_2">
     <g id="line2d_10">
      <g>
       <use style="stroke:#000000;stroke-width:0.8;" x="24.175" xlink:href="#mbb126a3e57" y="275.734937"/>
      </g>
     </g>
     <g id="text_11">
      <!-- 1 -->
      <g transform="translate(10.8125 279.534156)scale(0.1 -0.1)">
       <use xlink:href="#DejaVuSans-49"/>
      </g>
     </g>
    </g>
    <g id="ytick_3">
     <g id="line2d_11">
      <g>
       <use style="stroke:#000000;stroke-width:0.8;" x="24.175" xlink:href="#mbb126a3e57" y="236.65141"/>
      </g>
     </g>
     <g id="text_12">
      <!-- 2 -->
      <g transform="translate(10.8125 240.450628)scale(0.1 -0.1)">
       <use xlink:href="#DejaVuSans-50"/>
      </g>
     </g>
    </g>
    <g id="ytick_4">
     <g id="line2d_12">
      <g>
       <use style="stroke:#000000;stroke-width:0.8;" x="24.175" xlink:href="#mbb126a3e57" y="197.567882"/>
      </g>
     </g>
     <g id="text_13">
      <!-- 3 -->
      <g transform="translate(10.8125 201.367101)scale(0.1 -0.1)">
       <use xlink:href="#DejaVuSans-51"/>
      </g>
     </g>
    </g>
    <g id="ytick_5">
     <g id="line2d_13">
      <g>
       <use style="stroke:#000000;stroke-width:0.8;" x="24.175" xlink:href="#mbb126a3e57" y="158.484354"/>
      </g>
     </g>
     <g id="text_14">
      <!-- 4 -->
      <g transform="translate(10.8125 162.283573)scale(0.1 -0.1)">
       <use xlink:href="#DejaVuSans-52"/>
      </g>
     </g>
    </g>
    <g id="ytick_6">
     <g id="line2d_14">
      <g>
       <use style="stroke:#000000;stroke-width:0.8;" x="24.175" xlink:href="#mbb126a3e57" y="119.400826"/>
      </g>
     </g>
     <g id="text_15">
      <!-- 5 -->
      <g transform="translate(10.8125 123.200045)scale(0.1 -0.1)">
       <use xlink:href="#DejaVuSans-53"/>
      </g>
     </g>
    </g>
    <g id="ytick_7">
     <g id="line2d_15">
      <g>
       <use style="stroke:#000000;stroke-width:0.8;" x="24.175" xlink:href="#mbb126a3e57" y="80.317298"/>
      </g>
     </g>
     <g id="text_16">
      <!-- 6 -->
      <g transform="translate(10.8125 84.116517)scale(0.1 -0.1)">
       <use xlink:href="#DejaVuSans-54"/>
      </g>
     </g>
    </g>
    <g id="ytick_8">
     <g id="line2d_16">
      <g>
       <use style="stroke:#000000;stroke-width:0.8;" x="24.175" xlink:href="#mbb126a3e57" y="41.233771"/>
      </g>
     </g>
     <g id="text_17">
      <!-- 7 -->
      <g transform="translate(10.8125 45.032989)scale(0.1 -0.1)">
       <use xlink:href="#DejaVuSans-55"/>
      </g>
     </g>
    </g>
    <g id="text_18">
     <!-- complejidad -->
     <g transform="translate(4.732812 207.509375)rotate(-90)scale(0.1 -0.1)">
      <defs>
       <path d="M 48.78125 52.59375 
L 48.78125 44.1875 
Q 44.96875 46.296875 41.140625 47.34375 
Q 37.3125 48.390625 33.40625 48.390625 
Q 24.65625 48.390625 19.8125 42.84375 
Q 14.984375 37.3125 14.984375 27.296875 
Q 14.984375 17.28125 19.8125 11.734375 
Q 24.65625 6.203125 33.40625 6.203125 
Q 37.3125 6.203125 41.140625 7.25 
Q 44.96875 8.296875 48.78125 10.40625 
L 48.78125 2.09375 
Q 45.015625 0.34375 40.984375 -0.53125 
Q 36.96875 -1.421875 32.421875 -1.421875 
Q 20.0625 -1.421875 12.78125 6.34375 
Q 5.515625 14.109375 5.515625 27.296875 
Q 5.515625 40.671875 12.859375 48.328125 
Q 20.21875 56 33.015625 56 
Q 37.15625 56 41.109375 55.140625 
Q 45.0625 54.296875 48.78125 52.59375 
z
" id="DejaVuSans-99"/>
       <path d="M 9.421875 75.984375 
L 18.40625 75.984375 
L 18.40625 0 
L 9.421875 0 
z
" id="DejaVuSans-108"/>
       <path d="M 9.421875 54.6875 
L 18.40625 54.6875 
L 18.40625 -0.984375 
Q 18.40625 -11.421875 14.421875 -16.109375 
Q 10.453125 -20.796875 1.609375 -20.796875 
L -1.8125 -20.796875 
L -1.8125 -13.1875 
L 0.59375 -13.1875 
Q 5.71875 -13.1875 7.5625 -10.8125 
Q 9.421875 -8.453125 9.421875 -0.984375 
z
M 9.421875 75.984375 
L 18.40625 75.984375 
L 18.40625 64.59375 
L 9.421875 64.59375 
z
" id="DejaVuSans-106"/>
       <path d="M 45.40625 46.390625 
L 45.40625 75.984375 
L 54.390625 75.984375 
L 54.390625 0 
L 45.40625 0 
L 45.40625 8.203125 
Q 42.578125 3.328125 38.25 0.953125 
Q 33.9375 -1.421875 27.875 -1.421875 
Q 17.96875 -1.421875 11.734375 6.484375 
Q 5.515625 14.40625 5.515625 27.296875 
Q 5.515625 40.1875 11.734375 48.09375 
Q 17.96875 56 27.875 56 
Q 33.9375 56 38.25 53.625 
Q 42.578125 51.265625 45.40625 46.390625 
z
M 14.796875 27.296875 
Q 14.796875 17.390625 18.875 11.75 
Q 22.953125 6.109375 30.078125 6.109375 
Q 37.203125 6.109375 41.296875 11.75 
Q 45.40625 17.390625 45.40625 27.296875 
Q 45.40625 37.203125 41.296875 42.84375 
Q 37.203125 48.484375 30.078125 48.484375 
Q 22.953125 48.484375 18.875 42.84375 
Q 14.796875 37.203125 14.796875 27.296875 
z
" id="DejaVuSans-100"/>
       <path d="M 34.28125 27.484375 
Q 23.390625 27.484375 19.1875 25 
Q 14.984375 22.515625 14.984375 16.5 
Q 14.984375 11.71875 18.140625 8.90625 
Q 21.296875 6.109375 26.703125 6.109375 
Q 34.1875 6.109375 38.703125 11.40625 
Q 43.21875 16.703125 43.21875 25.484375 
L 43.21875 27.484375 
z
M 52.203125 31.203125 
L 52.203125 0 
L 43.21875 0 
L 43.21875 8.296875 
Q 40.140625 3.328125 35.546875 0.953125 
Q 30.953125 -1.421875 24.3125 -1.421875 
Q 15.921875 -1.421875 10.953125 3.296875 
Q 6 8.015625 6 15.921875 
Q 6 25.140625 12.171875 29.828125 
Q 18.359375 34.515625 30.609375 34.515625 
L 43.21875 34.515625 
L 43.21875 35.40625 
Q 43.21875 41.609375 39.140625 45 
Q 35.0625 48.390625 27.6875 48.390625 
Q 23 48.390625 18.546875 47.265625 
Q 14.109375 46.140625 10.015625 43.890625 
L 10.015625 52.203125 
Q 14.9375 54.109375 19.578125 55.046875 
Q 24.21875 56 28.609375 56 
Q 40.484375 56 46.34375 49.84375 
Q 52.203125 43.703125 52.203125 31.203125 
z
" id="DejaVuSans-97"/>
      </defs>
      <use xlink:href="#DejaVuSans-99"/>
      <use x="54.980469" xlink:href="#DejaVuSans-111"/>
      <use x="116.162109" xlink:href="#DejaVuSans-109"/>
      <use x="213.574219" xlink:href="#DejaVuSans-112"/>
      <use x="277.050781" xlink:href="#DejaVuSans-108"/>
      <use x="304.833984" xlink:href="#DejaVuSans-101"/>
      <use x="366.357422" xlink:href="#DejaVuSans-106"/>
      <use x="394.140625" xlink:href="#DejaVuSans-105"/>
      <use x="421.923828" xlink:href="#DejaVuSans-100"/>
      <use x="485.400391" xlink:href="#DejaVuSans-97"/>
      <use x="546.679688" xlink:href="#DejaVuSans-100"/>
     </g>
    </g>
    <g id="text_19">
     <!-- 1e44 -->
     <g transform="translate(24.175 18.8)scale(0.1 -0.1)">
      <use xlink:href="#DejaVuSans-49"/>
      <use x="63.623047" xlink:href="#DejaVuSans-101"/>
      <use x="125.146484" xlink:href="#DejaVuSans-52"/>
      <use x="188.769531" xlink:href="#DejaVuSans-52"/>
     </g>
    </g>
   </g>
   <g id="line2d_17">
    <path clip-path="url(#p6c7d763c28)" d="M 24.175 315.743347 
L 27.458081 315.556062 
L 30.741162 315.368777 
L 34.024242 315.181491 
L 37.307323 314.994206 
L 40.590404 314.806921 
L 43.873485 314.619635 
L 47.156566 314.43235 
L 50.439646 314.245064 
L 53.722727 314.057779 
L 57.005808 313.870494 
L 60.288889 313.683208 
L 63.57197 313.495923 
L 66.855051 313.308638 
L 70.138131 313.121352 
L 73.421212 312.934067 
L 76.704293 312.746782 
L 79.987374 312.559496 
L 83.270455 312.372211 
L 86.553535 312.184925 
L 89.836616 311.99764 
L 93.119697 311.810355 
L 96.402778 311.623069 
L 99.685859 311.435784 
L 102.968939 311.248499 
L 106.25202 311.061213 
L 109.535101 310.873928 
L 112.818182 310.686642 
L 116.101263 310.499357 
L 119.384343 310.312072 
L 122.667424 310.124786 
L 125.950505 309.937501 
L 129.233586 309.750216 
L 132.516667 309.56293 
L 135.799747 309.375645 
L 139.082828 309.18836 
L 142.365909 309.001074 
L 145.64899 308.813789 
L 148.932071 308.626503 
L 152.215152 308.439218 
L 155.498232 308.251933 
L 158.781313 308.064647 
L 162.064394 307.877362 
L 165.347475 307.690077 
L 168.630556 307.502791 
L 171.913636 307.315506 
L 175.196717 307.128221 
L 178.479798 306.940935 
L 181.762879 306.75365 
L 185.04596 306.566364 
L 188.32904 306.379079 
L 191.612121 306.191794 
L 194.895202 306.004508 
L 198.178283 305.817223 
L 201.461364 305.629938 
L 204.744444 305.442652 
L 208.027525 305.255367 
L 211.310606 305.068081 
L 214.593687 304.880796 
L 217.876768 304.693511 
L 221.159848 304.506225 
L 224.442929 304.31894 
L 227.72601 304.131655 
L 231.009091 303.944369 
L 234.292172 303.757084 
L 237.575253 303.569799 
L 240.858333 303.382513 
L 244.141414 303.195228 
L 247.424495 303.007942 
L 250.707576 302.820657 
L 253.990657 302.633372 
L 257.273737 302.446086 
L 260.556818 302.258801 
L 263.839899 302.071516 
L 267.12298 301.88423 
L 270.406061 301.696945 
L 273.689141 301.509659 
L 276.972222 301.322374 
L 280.255303 301.135089 
L 283.538384 300.947803 
L 286.821465 300.760518 
L 290.104545 300.573233 
L 293.387626 300.385947 
L 296.670707 300.198662 
L 299.953788 300.011377 
L 303.236869 299.824091 
L 306.519949 299.636806 
L 309.80303 299.44952 
L 313.086111 299.262235 
L 316.369192 299.07495 
L 319.652273 298.887664 
L 322.935354 298.700379 
L 326.218434 298.513094 
L 329.501515 298.325808 
L 332.784596 298.138523 
L 336.067677 297.951237 
L 339.350758 297.763952 
L 342.633838 297.576667 
L 345.916919 297.389381 
L 349.2 297.202096 
" style="fill:none;stroke:#1f77b4;stroke-linecap:square;stroke-width:2.25;"/>
   </g>
   <g id="patch_3">
    <path d="M 24.175 332.2 
L 24.175 21.8 
" style="fill:none;stroke:#000000;stroke-linecap:square;stroke-linejoin:miter;stroke-width:0.8;"/>
   </g>
   <g id="patch_4">
    <path d="M 24.175 332.2 
L 349.2 332.2 
" style="fill:none;stroke:#000000;stroke-linecap:square;stroke-linejoin:miter;stroke-width:0.8;"/>
   </g>
  </g>
 </g>
 <defs>
  <clipPath id="p6c7d763c28">
   <rect height="310.4" width="325.025" x="24.175" y="21.8"/>
  </clipPath>
 </defs>
</svg>
